<?xml version="1.0" standalone="no"?>
<!DOCTYPE svg PUBLIC "-//W3C//DTD SVG 1.1//EN" "http://www.w3.org/Graphics/SVG/1.1/DTD/svg11.dtd" >
<svg xmlns="http://www.w3.org/2000/svg">
<metadata>Generated by IcoMoon</metadata>
<defs>
<font id="icomoon" horiz-adv-x="1024">
<font-face units-per-em="1024" ascent="960" descent="-64" />
<missing-glyph horiz-adv-x="1024" />
<glyph unicode="&#x20;" horiz-adv-x="512" d="" />
<glyph unicode="&#xe900;" glyph-name="airplay" d="M942.933 836.267c-21.333 25.6-55.467 38.4-89.6 38.4h-682.667c-34.133 0-68.267-12.8-89.6-38.4-25.6-21.333-38.4-55.467-38.4-89.6v-426.667c0-34.133 12.8-68.267 38.4-89.6 21.333-25.6 55.467-38.4 89.6-38.4h42.667c25.6 0 42.667 17.067 42.667 42.667s-17.067 42.667-42.667 42.667h-42.667c-12.8 0-21.333 4.267-29.867 12.8s-12.8 17.067-12.8 29.867v426.667c0 12.8 4.267 21.333 12.8 29.867s17.067 12.8 29.867 12.8h682.667c12.8 0 21.333-4.267 29.867-12.8s12.8-17.067 12.8-29.867v-426.667c0-12.8-4.267-21.333-12.8-29.867s-17.067-12.8-29.867-12.8h-42.667c-25.6 0-42.667-17.067-42.667-42.667s17.067-42.667 42.667-42.667h42.667c34.133 0 68.267 12.8 89.6 38.4s38.4 55.467 38.4 89.6v426.667c0 34.133-12.8 68.267-38.4 89.6zM546.133 345.6c-17.067 21.333-51.2 21.333-64 0l-213.333-256c-8.533-12.8-12.8-29.867-4.267-46.933 4.267-12.8 17.067-21.333 34.133-21.333h426.667c17.067 0 29.867 8.533 38.4 25.6s4.267 34.133-4.267 46.933l-213.333 251.733zM388.267 106.667l123.733 145.067 123.733-145.067h-247.467z" />
<glyph unicode="&#xe901;" glyph-name="alert-circle" d="M512 917.333c-260.267 0-469.333-209.067-469.333-469.333s209.067-469.333 469.333-469.333 469.333 209.067 469.333 469.333c0 260.267-209.067 469.333-469.333 469.333zM512 64c-213.333 0-384 170.667-384 384s170.667 384 384 384c213.333 0 384-170.667 384-384s-170.667-384-384-384zM512 405.333c25.6 0 42.667 17.067 42.667 42.667v170.667c0 25.6-17.067 42.667-42.667 42.667s-42.667-17.067-42.667-42.667v-170.667c0-25.6 17.067-42.667 42.667-42.667zM512 320v0c-25.6 0-42.667-17.067-42.667-42.667s21.333-42.667 42.667-42.667 42.667 17.067 42.667 42.667-17.067 42.667-42.667 42.667z" />
<glyph unicode="&#xe902;" glyph-name="alert-octagon" d="M968.533 652.8l-251.733 251.733c-4.267 8.533-17.067 12.8-29.867 12.8h-349.867c-12.8 0-25.6-4.267-29.867-12.8l-251.733-251.733c-8.533-4.267-12.8-17.067-12.8-29.867v-354.133c0-12.8 4.267-21.333 12.8-29.867l251.733-251.733c4.267-4.267 17.067-8.533 29.867-8.533h354.133c12.8 0 21.333 4.267 29.867 12.8l251.733 251.733c8.533 8.533 12.8 17.067 12.8 29.867v349.867c-4.267 12.8-8.533 25.6-17.067 29.867zM896 290.133l-226.133-226.133h-315.733l-226.133 226.133v315.733l226.133 226.133h320l221.867-226.133v-315.733zM512 405.333c25.6 0 42.667 17.067 42.667 42.667v170.667c0 25.6-17.067 42.667-42.667 42.667s-42.667-17.067-42.667-42.667v-170.667c0-25.6 17.067-42.667 42.667-42.667zM512 320v0c-25.6 0-42.667-17.067-42.667-42.667s21.333-42.667 42.667-42.667 42.667 17.067 42.667 42.667-17.067 42.667-42.667 42.667z" />
<glyph unicode="&#xe903;" glyph-name="alert-triangle" d="M981.333 213.333l-358.4 605.867c-12.8 17.067-25.6 34.133-46.933 46.933-38.4 21.333-85.333 21.333-123.733 0-17.067-12.8-34.133-25.6-46.933-46.933 0 0 0 0 0 0l-362.667-605.867c-12.8-21.333-17.067-42.667-17.067-64s4.267-42.667 17.067-64c12.8-21.333 25.6-34.133 46.933-46.933 17.067-12.8 38.4-17.067 59.733-17.067h725.333c21.333 0 42.667 4.267 64 17.067s34.133 25.6 46.933 46.933c12.8 21.333 17.067 42.667 17.067 64-4.267 21.333-8.533 42.667-21.333 64zM908.8 128c-4.267-8.533-8.533-12.8-17.067-17.067-4.267-4.267-12.8-4.267-17.067-4.267h-725.333c-8.533 0-12.8 0-21.333 4.267-4.267 4.267-12.8 8.533-17.067 17.067s-4.267 12.8-4.267 21.333 0 12.8 4.267 21.333l362.667 601.6c4.267 4.267 8.533 12.8 17.067 17.067 12.8 8.533 29.867 8.533 42.667 0 4.267-4.267 12.8-8.533 17.067-12.8l362.667-601.6c4.267-8.533 4.267-12.8 4.267-21.333s-4.267-17.067-8.533-25.6zM512 362.667c25.6 0 42.667 17.067 42.667 42.667v170.667c0 25.6-17.067 42.667-42.667 42.667s-42.667-17.067-42.667-42.667v-170.667c0-25.6 17.067-42.667 42.667-42.667zM512 277.333v0c-25.6 0-42.667-17.067-42.667-42.667s21.333-42.667 42.667-42.667 42.667 17.067 42.667 42.667-17.067 42.667-42.667 42.667z" />
<glyph unicode="&#xe904;" glyph-name="align-center" d="M256 576c-25.6 0-42.667-17.067-42.667-42.667s17.067-42.667 42.667-42.667h512c25.6 0 42.667 17.067 42.667 42.667s-17.067 42.667-42.667 42.667h-512zM128 661.333h768c25.6 0 42.667 17.067 42.667 42.667s-17.067 42.667-42.667 42.667h-768c-25.6 0-42.667-17.067-42.667-42.667s17.067-42.667 42.667-42.667zM896 405.333h-768c-25.6 0-42.667-17.067-42.667-42.667s17.067-42.667 42.667-42.667h768c25.6 0 42.667 17.067 42.667 42.667s-17.067 42.667-42.667 42.667zM768 234.667h-512c-25.6 0-42.667-17.067-42.667-42.667s17.067-42.667 42.667-42.667h512c25.6 0 42.667 17.067 42.667 42.667s-17.067 42.667-42.667 42.667z" />
<glyph unicode="&#xe905;" glyph-name="align-justify" d="M896 576h-768c-25.6 0-42.667-17.067-42.667-42.667s17.067-42.667 42.667-42.667h768c25.6 0 42.667 17.067 42.667 42.667s-17.067 42.667-42.667 42.667zM128 661.333h768c25.6 0 42.667 17.067 42.667 42.667s-17.067 42.667-42.667 42.667h-768c-25.6 0-42.667-17.067-42.667-42.667s17.067-42.667 42.667-42.667zM896 405.333h-768c-25.6 0-42.667-17.067-42.667-42.667s17.067-42.667 42.667-42.667h768c25.6 0 42.667 17.067 42.667 42.667s-17.067 42.667-42.667 42.667zM896 234.667h-768c-25.6 0-42.667-17.067-42.667-42.667s17.067-42.667 42.667-42.667h768c25.6 0 42.667 17.067 42.667 42.667s-17.067 42.667-42.667 42.667z" />
<glyph unicode="&#xe906;" glyph-name="align-left" d="M128 490.667h597.333c25.6 0 42.667 17.067 42.667 42.667s-17.067 42.667-42.667 42.667h-597.333c-25.6 0-42.667-17.067-42.667-42.667s17.067-42.667 42.667-42.667zM128 661.333h768c25.6 0 42.667 17.067 42.667 42.667s-17.067 42.667-42.667 42.667h-768c-25.6 0-42.667-17.067-42.667-42.667s17.067-42.667 42.667-42.667zM896 405.333h-768c-25.6 0-42.667-17.067-42.667-42.667s17.067-42.667 42.667-42.667h768c25.6 0 42.667 17.067 42.667 42.667s-17.067 42.667-42.667 42.667zM725.333 234.667h-597.333c-25.6 0-42.667-17.067-42.667-42.667s17.067-42.667 42.667-42.667h597.333c25.6 0 42.667 17.067 42.667 42.667s-17.067 42.667-42.667 42.667z" />
<glyph unicode="&#xe907;" glyph-name="align-right" d="M896 576h-597.333c-25.6 0-42.667-17.067-42.667-42.667s17.067-42.667 42.667-42.667h597.333c25.6 0 42.667 17.067 42.667 42.667s-17.067 42.667-42.667 42.667zM128 661.333h768c25.6 0 42.667 17.067 42.667 42.667s-17.067 42.667-42.667 42.667h-768c-25.6 0-42.667-17.067-42.667-42.667s17.067-42.667 42.667-42.667zM896 405.333h-768c-25.6 0-42.667-17.067-42.667-42.667s17.067-42.667 42.667-42.667h768c25.6 0 42.667 17.067 42.667 42.667s-17.067 42.667-42.667 42.667zM896 234.667h-597.333c-25.6 0-42.667-17.067-42.667-42.667s17.067-42.667 42.667-42.667h597.333c25.6 0 42.667 17.067 42.667 42.667s-17.067 42.667-42.667 42.667z" />
<glyph unicode="&#xe908;" glyph-name="anchor" d="M938.667 490.667h-128c-25.6 0-42.667-17.067-42.667-42.667s17.067-42.667 42.667-42.667h81.067c-8.533-85.333-46.933-166.4-110.933-230.4s-140.8-102.4-230.4-110.933v516.267c72.533 17.067 128 85.333 128 166.4 0 93.867-76.8 170.667-170.667 170.667-89.6 0-166.4-76.8-166.4-170.667 0-81.067 55.467-145.067 128-166.4v-516.267c-85.333 8.533-166.4 46.933-230.4 110.933-59.733 64-98.133 145.067-106.667 230.4h81.067c25.6 0 42.667 17.067 42.667 42.667s-17.067 42.667-42.667 42.667h-128c-25.6 0-42.667-17.067-42.667-42.667 0-123.733 46.933-243.2 136.533-332.8s209.067-136.533 332.8-136.533c123.733 0 243.2 46.933 332.8 136.533s136.533 204.8 136.533 332.8c0 25.6-17.067 42.667-42.667 42.667zM426.667 746.667c0 46.933 38.4 85.333 85.333 85.333s85.333-38.4 85.333-85.333-38.4-85.333-85.333-85.333c-46.933 0-85.333 38.4-85.333 85.333z" />
<glyph unicode="&#xe909;" glyph-name="aperture" d="M891.733 174.933c55.467 76.8 89.6 170.667 89.6 273.067 0 64-12.8 128-38.4 183.467 0 0 0 4.267 0 4.267-64 149.333-204.8 256-375.467 277.333 0 0-4.267 0-4.267 0-17.067 4.267-34.133 4.267-51.2 4.267-153.6 0-290.133-72.533-375.467-187.733 0 0-4.267-4.267-4.267-8.533-55.467-76.8-89.6-170.667-89.6-273.067 0-64 12.8-128 38.4-187.733 0 0 0-4.267 0-4.267 64-149.333 204.8-256 371.2-277.333 0 0 4.267 0 4.267 0 17.067 0 38.4-4.267 55.467-4.267 153.6 0 290.133 72.533 375.467 187.733 0 4.267 4.267 8.533 4.267 12.8zM584.533 320h-149.333l-72.533 128 72.533 128h149.333l72.533-128-72.533-128zM128 448c0 59.733 12.8 119.467 38.4 170.667l170.667-298.667h-187.733c-12.8 38.4-21.333 81.067-21.333 128zM682.667 576h187.733c12.8-38.4 21.333-81.067 21.333-128 0-59.733-12.8-119.467-38.4-170.667l-170.667 298.667zM832 661.333h-345.6l93.867 162.133c106.667-17.067 196.267-76.8 251.733-162.133zM486.4 832l-170.667-298.667-93.867 162.133c64 76.8 157.867 128 264.533 136.533zM192 234.667h345.6l-93.867-162.133c-106.667 17.067-196.267 76.8-251.733 162.133zM537.6 64l170.667 298.667 93.867-162.133c-64-76.8-157.867-128-264.533-136.533z" />
<glyph unicode="&#xe90a;" glyph-name="archive" d="M981.333 874.667h-938.667c-25.6 0-42.667-17.067-42.667-42.667v-213.333c0-25.6 17.067-42.667 42.667-42.667h42.667v-512c0-25.6 17.067-42.667 42.667-42.667h768c25.6 0 42.667 17.067 42.667 42.667v512h42.667c25.6 0 42.667 17.067 42.667 42.667v213.333c0 25.6-17.067 42.667-42.667 42.667zM853.333 106.667h-682.667v469.333h682.667v-469.333zM938.667 661.333h-853.333v128h853.333v-128zM426.667 405.333h170.667c25.6 0 42.667 17.067 42.667 42.667s-17.067 42.667-42.667 42.667h-170.667c-25.6 0-42.667-17.067-42.667-42.667s17.067-42.667 42.667-42.667z" />
<glyph unicode="&#xe90b;" glyph-name="arrow-down-circle" d="M512 917.333c-260.267 0-469.333-209.067-469.333-469.333s209.067-469.333 469.333-469.333 469.333 209.067 469.333 469.333c0 260.267-209.067 469.333-469.333 469.333zM512 64c-213.333 0-384 170.667-384 384s170.667 384 384 384c213.333 0 384-170.667 384-384s-170.667-384-384-384zM652.8 477.867l-98.133-98.133v238.933c0 25.6-17.067 42.667-42.667 42.667s-42.667-17.067-42.667-42.667v-238.933l-98.133 98.133c-17.067 17.067-42.667 17.067-59.733 0s-17.067-42.667 0-59.733l170.667-170.667c4.267-4.267 8.533-8.533 12.8-8.533 4.267-4.267 12.8-4.267 17.067-4.267s12.8 0 17.067 4.267c4.267 4.267 8.533 4.267 12.8 8.533l170.667 170.667c17.067 17.067 17.067 42.667 0 59.733s-42.667 17.067-59.733 0z" />
<glyph unicode="&#xe90c;" glyph-name="arrow-down-left" d="M725.333 277.333h-324.267l354.133 354.133c17.067 17.067 17.067 42.667 0 59.733s-42.667 17.067-59.733 0l-354.133-354.133v324.267c0 25.6-17.067 42.667-42.667 42.667s-42.667-17.067-42.667-42.667v-426.667c0-4.267 0-12.8 4.267-17.067 4.267-8.533 12.8-17.067 21.333-21.333 4.267-4.267 12.8-4.267 17.067-4.267h426.667c25.6 0 42.667 17.067 42.667 42.667s-17.067 42.667-42.667 42.667z" />
<glyph unicode="&#xe90d;" glyph-name="arrow-down-right" d="M768 661.333c0 25.6-17.067 42.667-42.667 42.667s-42.667-17.067-42.667-42.667v-324.267l-354.133 354.133c-17.067 17.067-42.667 17.067-59.733 0s-17.067-42.667 0-59.733l354.133-354.133h-324.267c-25.6 0-42.667-17.067-42.667-42.667s17.067-42.667 42.667-42.667h426.667c4.267 0 12.8 0 17.067 4.267 8.533 4.267 17.067 12.8 21.333 21.333 4.267 4.267 4.267 12.8 4.267 17.067v426.667z" />
<glyph unicode="&#xe90e;" glyph-name="arrow-down" d="M840.533 477.867c-17.067 17.067-42.667 17.067-59.733 0l-226.133-226.133v494.933c0 25.6-17.067 42.667-42.667 42.667s-42.667-17.067-42.667-42.667v-494.933l-226.133 226.133c-17.067 17.067-42.667 17.067-59.733 0s-17.067-42.667 0-59.733l298.667-298.667c4.267-4.267 8.533-8.533 12.8-8.533 4.267-4.267 12.8-4.267 17.067-4.267s12.8 0 17.067 4.267c4.267 4.267 8.533 4.267 12.8 8.533l298.667 298.667c17.067 17.067 17.067 42.667 0 59.733z" />
<glyph unicode="&#xe90f;" glyph-name="arrow-left-circle" d="M512 917.333c-260.267 0-469.333-209.067-469.333-469.333s209.067-469.333 469.333-469.333 469.333 209.067 469.333 469.333c0 260.267-209.067 469.333-469.333 469.333zM512 64c-213.333 0-384 170.667-384 384s170.667 384 384 384c213.333 0 384-170.667 384-384s-170.667-384-384-384zM682.667 490.667h-238.933l98.133 98.133c17.067 17.067 17.067 42.667 0 59.733s-42.667 17.067-59.733 0l-170.667-170.667c-4.267-4.267-8.533-8.533-8.533-12.8-4.267-8.533-4.267-21.333 0-34.133 0-4.267 4.267-8.533 8.533-12.8 0 0 0 0 0 0l170.667-170.667c8.533-8.533 21.333-12.8 29.867-12.8s21.333 4.267 29.867 12.8c17.067 17.067 17.067 42.667 0 59.733l-98.133 98.133h238.933c25.6 0 42.667 17.067 42.667 42.667s-17.067 42.667-42.667 42.667z" />
<glyph unicode="&#xe910;" glyph-name="arrow-left" d="M810.667 490.667h-494.933l226.133 226.133c17.067 17.067 17.067 42.667 0 59.733s-42.667 17.067-59.733 0l-298.667-298.667c-4.267-4.267-8.533-8.533-8.533-12.8-4.267-8.533-4.267-21.333 0-34.133 0-4.267 4.267-8.533 8.533-12.8 0 0 0 0 0 0l298.667-298.667c8.533-8.533 21.333-12.8 29.867-12.8s21.333 4.267 29.867 12.8c17.067 17.067 17.067 42.667 0 59.733l-226.133 226.133h494.933c25.6 0 42.667 17.067 42.667 42.667s-17.067 42.667-42.667 42.667z" />
<glyph unicode="&#xe911;" glyph-name="arrow-right-circle" d="M512 917.333c-260.267 0-469.333-209.067-469.333-469.333s209.067-469.333 469.333-469.333 469.333 209.067 469.333 469.333c0 260.267-209.067 469.333-469.333 469.333zM512 64c-213.333 0-384 170.667-384 384s170.667 384 384 384c213.333 0 384-170.667 384-384s-170.667-384-384-384zM721.067 465.067c-4.267 4.267-4.267 8.533-8.533 12.8l-170.667 170.667c-17.067 17.067-42.667 17.067-59.733 0s-17.067-42.667 0-59.733l98.133-98.133h-238.933c-25.6 0-42.667-17.067-42.667-42.667s17.067-42.667 42.667-42.667h238.933l-98.133-98.133c-17.067-17.067-17.067-42.667 0-59.733 8.533-8.533 21.333-12.8 29.867-12.8s21.333 4.267 29.867 12.8l170.667 170.667c4.267 4.267 8.533 8.533 8.533 12.8 4.267 12.8 4.267 21.333 0 34.133z" />
<glyph unicode="&#xe912;" glyph-name="arrow-right" d="M849.067 430.933c4.267 8.533 4.267 21.333 0 34.133-4.267 4.267-4.267 8.533-8.533 12.8l-298.667 298.667c-17.067 17.067-42.667 17.067-59.733 0s-17.067-42.667 0-59.733l226.133-226.133h-494.933c-25.6 0-42.667-17.067-42.667-42.667s17.067-42.667 42.667-42.667h494.933l-226.133-226.133c-17.067-17.067-17.067-42.667 0-59.733 8.533-8.533 21.333-12.8 29.867-12.8s21.333 4.267 29.867 12.8l298.667 298.667c4.267 4.267 8.533 8.533 8.533 12.8z" />
<glyph unicode="&#xe913;" glyph-name="arrow-up-circle" d="M512 917.333c-260.267 0-469.333-209.067-469.333-469.333s209.067-469.333 469.333-469.333 469.333 209.067 469.333 469.333c0 260.267-209.067 469.333-469.333 469.333zM512 64c-213.333 0-384 170.667-384 384s170.667 384 384 384c213.333 0 384-170.667 384-384s-170.667-384-384-384zM541.867 648.533c-4.267 4.267-8.533 8.533-12.8 8.533-8.533 4.267-21.333 4.267-34.133 0-4.267-4.267-8.533-4.267-12.8-8.533l-170.667-170.667c-17.067-17.067-17.067-42.667 0-59.733s42.667-17.067 59.733 0l98.133 98.133v-238.933c0-25.6 17.067-42.667 42.667-42.667s42.667 17.067 42.667 42.667v238.933l98.133-98.133c8.533-8.533 21.333-12.8 29.867-12.8s21.333 4.267 29.867 12.8c17.067 17.067 17.067 42.667 0 59.733l-170.667 170.667z" />
<glyph unicode="&#xe914;" glyph-name="arrow-up-left" d="M401.067 618.667h324.267c25.6 0 42.667 17.067 42.667 42.667s-17.067 42.667-42.667 42.667h-426.667c-4.267 0-12.8 0-17.067-4.267-8.533-4.267-17.067-12.8-21.333-21.333-4.267-4.267-4.267-12.8-4.267-17.067v-426.667c0-25.6 17.067-42.667 42.667-42.667s42.667 17.067 42.667 42.667v324.267l354.133-354.133c8.533-8.533 21.333-12.8 29.867-12.8s21.333 4.267 29.867 12.8c17.067 17.067 17.067 42.667 0 59.733l-354.133 354.133z" />
<glyph unicode="&#xe915;" glyph-name="arrow-up-right" d="M763.733 678.4c-4.267 8.533-12.8 17.067-21.333 21.333-4.267 4.267-12.8 4.267-17.067 4.267h-426.667c-25.6 0-42.667-17.067-42.667-42.667s17.067-42.667 42.667-42.667h324.267l-354.133-354.133c-17.067-17.067-17.067-42.667 0-59.733 8.533-8.533 17.067-12.8 29.867-12.8s21.333 4.267 29.867 12.8l354.133 354.133v-324.267c0-25.6 17.067-42.667 42.667-42.667s42.667 17.067 42.667 42.667v426.667c0 4.267 0 12.8-4.267 17.067z" />
<glyph unicode="&#xe916;" glyph-name="arrow-up" d="M840.533 477.867l-298.667 298.667c-4.267 4.267-8.533 8.533-12.8 8.533-8.533 4.267-21.333 4.267-34.133 0-4.267-4.267-8.533-4.267-12.8-8.533l-298.667-298.667c-17.067-17.067-17.067-42.667 0-59.733s42.667-17.067 59.733 0l226.133 226.133v-494.933c0-25.6 17.067-42.667 42.667-42.667s42.667 17.067 42.667 42.667v494.933l226.133-226.133c8.533-8.533 21.333-12.8 29.867-12.8s21.333 4.267 29.867 12.8c17.067 17.067 17.067 42.667 0 59.733z" />
<glyph unicode="&#xe917;" glyph-name="at-sign" d="M878.933 738.133c-64 81.067-157.867 140.8-260.267 166.4s-213.333 12.8-307.2-34.133c-93.867-42.667-174.933-119.467-221.867-213.333s-59.733-204.8-38.4-307.2c21.333-102.4 81.067-196.267 162.133-264.533s183.467-106.667 290.133-106.667c4.267 0 4.267 0 8.533 0 102.4 0 204.8 34.133 285.867 98.133 17.067 12.8 21.333 42.667 8.533 59.733s-42.667 21.333-59.733 8.533c-68.267-51.2-153.6-81.067-238.933-81.067s-170.667 34.133-238.933 85.333c-68.267 55.467-115.2 132.267-132.267 217.6s-8.533 174.933 29.867 251.733c38.4 76.8 102.4 140.8 179.2 179.2 81.067 34.133 170.667 42.667 251.733 25.6 85.333-21.333 157.867-68.267 213.333-136.533s85.333-153.6 85.333-238.933v-42.667c0-21.333-8.533-42.667-25.6-59.733-34.133-34.133-89.6-34.133-119.467 0-17.067 17.067-25.6 38.4-25.6 59.733v213.333c0 25.6-17.067 42.667-42.667 42.667s-42.667-17.067-42.667-42.667v0c-34.133 25.6-81.067 42.667-128 42.667-119.467 0-213.333-93.867-213.333-213.333s93.867-213.333 213.333-213.333c64 0 119.467 29.867 157.867 72.533 4.267-8.533 12.8-17.067 17.067-21.333 64-64 174.933-64 243.2 0 34.133 34.133 51.2 76.8 51.2 119.467v42.667c0 106.667-34.133 209.067-102.4 290.133zM512 320c-72.533 0-128 55.467-128 128s55.467 128 128 128 128-55.467 128-128c0-72.533-55.467-128-128-128z" />
<glyph unicode="&#xe918;" glyph-name="award" d="M827.733 601.6c0 174.933-140.8 315.733-315.733 315.733s-315.733-140.8-315.733-315.733c0-102.4 46.933-192 119.467-247.467l-42.667-328.533c-4.267-17.067 4.267-34.133 17.067-42.667s29.867-8.533 46.933 0l170.667 102.4 170.667-102.4c8.533-4.267 12.8-4.267 21.333-4.267s17.067 4.267 21.333 8.533 21.333 25.6 17.067 42.667l-42.667 328.533c81.067 55.467 132.267 145.067 132.267 243.2zM281.6 601.6c0 128 102.4 230.4 230.4 230.4s230.4-102.4 230.4-230.4-102.4-226.133-230.4-226.133c-128 0-230.4 102.4-230.4 226.133zM652.8 102.4l-119.467 72.533c-12.8 8.533-29.867 8.533-42.667 0l-119.467-72.533 25.6 204.8c34.133-12.8 72.533-21.333 110.933-21.333s76.8 8.533 110.933 21.333l34.133-204.8z" />
<glyph unicode="&#xe919;" glyph-name="bar-chart-2" d="M768 576c-25.6 0-42.667-17.067-42.667-42.667v-426.667c0-25.6 17.067-42.667 42.667-42.667s42.667 17.067 42.667 42.667v426.667c0 25.6-17.067 42.667-42.667 42.667zM512 832c-25.6 0-42.667-17.067-42.667-42.667v-682.667c0-25.6 17.067-42.667 42.667-42.667s42.667 17.067 42.667 42.667v682.667c0 25.6-17.067 42.667-42.667 42.667zM256 405.333c-25.6 0-42.667-17.067-42.667-42.667v-256c0-25.6 17.067-42.667 42.667-42.667s42.667 17.067 42.667 42.667v256c0 25.6-17.067 42.667-42.667 42.667z" />
<glyph unicode="&#xe91a;" glyph-name="bar-chart" d="M512 576c-25.6 0-42.667-17.067-42.667-42.667v-426.667c0-25.6 17.067-42.667 42.667-42.667s42.667 17.067 42.667 42.667v426.667c0 25.6-17.067 42.667-42.667 42.667zM768 832c-25.6 0-42.667-17.067-42.667-42.667v-682.667c0-25.6 17.067-42.667 42.667-42.667s42.667 17.067 42.667 42.667v682.667c0 25.6-17.067 42.667-42.667 42.667zM256 320c-25.6 0-42.667-17.067-42.667-42.667v-170.667c0-25.6 17.067-42.667 42.667-42.667s42.667 17.067 42.667 42.667v170.667c0 25.6-17.067 42.667-42.667 42.667z" />
<glyph unicode="&#xe91b;" glyph-name="battery-charging" d="M981.333 576c-25.6 0-42.667-17.067-42.667-42.667v-170.667c0-25.6 17.067-42.667 42.667-42.667s42.667 17.067 42.667 42.667v170.667c0 25.6-17.067 42.667-42.667 42.667zM597.333 469.333c-8.533 12.8-21.333 21.333-38.4 21.333h-174.933l128 187.733c12.8 21.333 8.533 46.933-12.8 59.733s-46.933 8.533-59.733-12.8l-170.667-256c-8.533-12.8-8.533-29.867 0-42.667 4.267-12.8 17.067-21.333 34.133-21.333h174.933l-128-187.733c-12.8-21.333-8.533-46.933 12.8-59.733 8.533-4.267 17.067-8.533 25.6-8.533 12.8 0 25.6 8.533 34.133 17.067l170.667 256c8.533 17.067 12.8 29.867 4.267 46.933zM217.6 234.667h-85.333c-12.8 0-21.333 4.267-29.867 12.8s-12.8 17.067-12.8 29.867v341.333c0 12.8 4.267 21.333 12.8 29.867s17.067 12.8 29.867 12.8h136.533c25.6 0 42.667 17.067 42.667 42.667s-17.067 42.667-42.667 42.667h-136.533c-34.133 0-68.267-12.8-89.6-38.4-25.6-21.333-38.4-55.467-38.4-89.6v-341.333c0-34.133 12.8-68.267 38.4-89.6 21.333-25.6 55.467-38.4 89.6-38.4h85.333c25.6 0 42.667 17.067 42.667 42.667s-17.067 42.667-42.667 42.667zM729.6 746.667h-85.333c-25.6 0-42.667-17.067-42.667-42.667s17.067-42.667 42.667-42.667h85.333c12.8 0 21.333-4.267 29.867-12.8s12.8-17.067 12.8-29.867v-341.333c0-12.8-4.267-21.333-12.8-29.867s-17.067-12.8-29.867-12.8h-136.533c-25.6 0-42.667-17.067-42.667-42.667s17.067-42.667 42.667-42.667h136.533c34.133 0 68.267 12.8 89.6 38.4s38.4 55.467 38.4 89.6v341.333c0 34.133-12.8 68.267-38.4 89.6s-55.467 38.4-89.6 38.4z" />
<glyph unicode="&#xe91c;" glyph-name="battery" d="M725.333 746.667h-597.333c-72.533 0-128-55.467-128-128v-341.333c0-72.533 55.467-128 128-128h597.333c72.533 0 128 55.467 128 128v341.333c0 72.533-55.467 128-128 128zM768 277.333c0-25.6-17.067-42.667-42.667-42.667h-597.333c-25.6 0-42.667 17.067-42.667 42.667v341.333c0 25.6 17.067 42.667 42.667 42.667h597.333c25.6 0 42.667-17.067 42.667-42.667v-341.333zM981.333 533.333c-25.6 0-42.667-17.067-42.667-42.667v-85.333c0-25.6 17.067-42.667 42.667-42.667s42.667 17.067 42.667 42.667v85.333c0 25.6-17.067 42.667-42.667 42.667z" />
<glyph unicode="&#xe91d;" glyph-name="bell-off" d="M605.867 102.4c-21.333 12.8-46.933 4.267-59.733-17.067-4.267-8.533-8.533-12.8-17.067-17.067-12.8-8.533-29.867-8.533-42.667 0-8.533 4.267-12.8 8.533-17.067 17.067-12.8 21.333-38.4 25.6-59.733 17.067-21.333-12.8-25.6-38.4-17.067-59.733 12.8-21.333 25.6-34.133 46.933-46.933s42.667-17.067 64-17.067 42.667 4.267 64 17.067c21.333 12.8 34.133 25.6 46.933 46.933 21.333 21.333 12.8 46.933-8.533 59.733zM392.533 797.867c34.133 21.333 72.533 34.133 110.933 34.133s76.8-8.533 110.933-25.6c34.133-17.067 64-46.933 81.067-76.8s29.867-72.533 29.867-110.933c0 0 0 0 0 0 0-76.8 8.533-149.333 29.867-226.133 4.267-17.067 21.333-29.867 42.667-29.867 4.267 0 8.533 0 12.8 0 21.333 4.267 34.133 29.867 29.867 51.2-21.333 68.267-29.867 136.533-29.867 204.8 0 0 0 0 0 0s0 0 0 0c0 55.467-12.8 106.667-42.667 153.6s-68.267 85.333-115.2 110.933c-46.933 25.6-102.4 38.4-153.6 34.133-55.467-4.267-106.667-21.333-149.333-51.2-21.333-12.8-29.867-38.4-17.067-59.733 12.8-17.067 42.667-21.333 59.733-8.533zM1011.2 8.533l-256 256c0 0 0 0 0 0l-682.667 682.667c-17.067 17.067-42.667 17.067-59.733 0s-17.067-42.667 0-59.733l209.067-209.067c-4.267-17.067-8.533-38.4-8.533-59.733 0-268.8-106.667-349.867-110.933-349.867-17.067-8.533-21.333-29.867-17.067-46.933 8.533-17.067 25.6-29.867 42.667-29.867h580.267l243.2-243.2c8.533-8.533 21.333-12.8 29.867-12.8s21.333 4.267 29.867 12.8c17.067 17.067 17.067 42.667 0 59.733zM217.6 277.333c38.4 59.733 76.8 162.133 81.067 324.267l324.267-324.267h-405.333z" />
<glyph unicode="&#xe91e;" glyph-name="bell" d="M921.6 268.8c0 0-110.933 81.067-110.933 349.867 0 81.067-29.867 153.6-89.6 209.067-55.467 59.733-128 89.6-209.067 89.6s-153.6-29.867-209.067-89.6c-59.733-55.467-89.6-128-89.6-209.067 0-268.8-106.667-349.867-110.933-349.867-17.067-8.533-21.333-29.867-17.067-46.933 8.533-17.067 25.6-29.867 42.667-29.867h768c17.067 0 34.133 12.8 38.4 29.867s0 38.4-12.8 46.933zM217.6 277.333c38.4 64 81.067 170.667 81.067 341.333 0 55.467 21.333 110.933 64 149.333 38.4 42.667 93.867 64 149.333 64s110.933-21.333 149.333-64c42.667-38.4 64-93.867 64-149.333 0-170.667 42.667-277.333 81.067-341.333h-588.8zM605.867 102.4c-21.333 12.8-46.933 4.267-59.733-17.067-4.267-8.533-8.533-12.8-17.067-17.067-12.8-8.533-29.867-8.533-42.667 0-8.533 4.267-12.8 8.533-17.067 17.067-12.8 21.333-38.4 25.6-59.733 17.067-21.333-12.8-25.6-38.4-17.067-59.733 12.8-21.333 25.6-34.133 46.933-46.933s42.667-17.067 64-17.067 42.667 4.267 64 17.067c21.333 12.8 34.133 25.6 46.933 46.933 21.333 21.333 12.8 46.933-8.533 59.733z" />
<glyph unicode="&#xe91f;" glyph-name="bluetooth" d="M512-21.333c-4.267 0-12.8 0-17.067 4.267-17.067 4.267-25.6 21.333-25.6 38.4v324.267l-140.8-140.8c-17.067-17.067-42.667-17.067-59.733 0s-17.067 42.667 0 59.733l183.467 183.467-183.467 183.467c-17.067 17.067-17.067 42.667 0 59.733s42.667 17.067 59.733 0l140.8-140.8v324.267c0 17.067 8.533 34.133 25.6 38.4 17.067 8.533 34.133 4.267 46.933-8.533l213.333-213.333c17.067-17.067 17.067-42.667 0-59.733l-183.467-183.467 183.467-183.467c17.067-17.067 17.067-42.667 0-59.733l-213.333-213.333c-8.533-8.533-17.067-12.8-29.867-12.8zM554.667 345.6v-221.867l110.933 110.933-110.933 110.933zM554.667 772.267v-221.867l110.933 110.933-110.933 110.933z" />
<glyph unicode="&#xe920;" glyph-name="bold" d="M789.333 426.667c-12.8 12.8-29.867 25.6-46.933 34.133 0 0 4.267 4.267 4.267 4.267 42.667 42.667 64 98.133 64 153.6s-21.333 110.933-64 149.333c-38.4 42.667-93.867 64-149.333 64h-341.333c-25.6 0-42.667-17.067-42.667-42.667v-682.667c0-25.6 17.067-42.667 42.667-42.667h384c55.467 0 110.933 21.333 149.333 64s64 93.867 64 149.333c0 55.467-21.333 110.933-64 149.333zM298.667 746.667h298.667c34.133 0 68.267-12.8 89.6-38.4 25.6-21.333 38.4-55.467 38.4-89.6s-12.8-68.267-38.4-89.6c-21.333-25.6-55.467-38.4-89.6-38.4h-298.667v256zM729.6 187.733c-21.333-25.6-55.467-38.4-89.6-38.4h-341.333v256h341.333c34.133 0 68.267-12.8 89.6-38.4 25.6-25.6 38.4-55.467 38.4-89.6s-12.8-68.267-38.4-89.6z" />
<glyph unicode="&#xe921;" glyph-name="book-open" d="M938.667 874.667h-256c-55.467 0-110.933-21.333-149.333-64-8.533-4.267-17.067-12.8-21.333-21.333-4.267 8.533-12.8 17.067-21.333 25.6-38.4 38.4-93.867 59.733-149.333 59.733h-256c-25.6 0-42.667-17.067-42.667-42.667v-640c0-25.6 17.067-42.667 42.667-42.667h298.667c21.333 0 42.667-8.533 59.733-25.6s25.6-38.4 25.6-59.733c0-25.6 17.067-42.667 42.667-42.667s42.667 17.067 42.667 42.667c0 21.333 8.533 42.667 25.6 59.733s38.4 25.6 59.733 25.6h298.667c25.6 0 42.667 17.067 42.667 42.667v640c0 25.6-17.067 42.667-42.667 42.667zM469.333 213.333c-25.6 12.8-55.467 21.333-85.333 21.333h-256v554.667h213.333c34.133 0 68.267-12.8 89.6-38.4 25.6-21.333 38.4-55.467 38.4-89.6v-448zM896 234.667h-256c-29.867 0-59.733-8.533-85.333-21.333v448c0 34.133 12.8 68.267 38.4 89.6 21.333 25.6 55.467 38.4 89.6 38.4h213.333v-554.667z" />
<glyph unicode="&#xe922;" glyph-name="book" d="M853.333 917.333h-576c-38.4 0-76.8-17.067-106.667-42.667-25.6-29.867-42.667-68.267-42.667-106.667v-640c0-38.4 17.067-76.8 42.667-106.667 29.867-29.867 64-42.667 106.667-42.667h576c25.6 0 42.667 17.067 42.667 42.667v853.333c0 25.6-17.067 42.667-42.667 42.667zM230.4 814.933c12.8 8.533 29.867 17.067 46.933 17.067h533.333v-554.667h-533.333c-21.333 0-42.667-4.267-64-17.067v507.733c0 17.067 8.533 34.133 17.067 46.933zM277.333 64c-17.067 0-34.133 8.533-46.933 17.067-8.533 12.8-17.067 29.867-17.067 46.933s8.533 34.133 17.067 46.933c12.8 8.533 29.867 17.067 46.933 17.067h533.333v-128h-533.333z" />
<glyph unicode="&#xe923;" glyph-name="bookmark" d="M844.8-21.333c-8.533 0-17.067 4.267-25.6 8.533l-307.2 217.6-307.2-217.6c-12.8-8.533-29.867-8.533-42.667-4.267-12.8 8.533-21.333 21.333-21.333 38.4v759.467c0 38.4 12.8 72.533 38.4 98.133s59.733 38.4 93.867 38.4h473.6c34.133 0 72.533-12.8 98.133-38.4s38.4-59.733 38.4-98.133v-759.467c0-17.067-8.533-29.867-21.333-38.4-4.267-4.267-12.8-4.267-17.067-4.267zM273.067 832c-12.8 0-25.6-4.267-34.133-17.067-12.8-8.533-17.067-21.333-17.067-34.133v-674.133l264.533 187.733c12.8 8.533 34.133 8.533 51.2 0l264.533-187.733v674.133c0 12.8-4.267 25.6-17.067 38.4-8.533 8.533-21.333 12.8-34.133 12.8h-477.867z" />
<glyph unicode="&#xe924;" glyph-name="box" d="M925.867 674.133c0 4.267 0 4.267-4.267 8.533s-4.267 8.533-8.533 12.8c-8.533 12.8-21.333 25.6-38.4 34.133l-298.667 170.667c-38.4 21.333-89.6 21.333-128 0l-298.667-170.667c-12.8-8.533-25.6-21.333-38.4-34.133-4.267-4.267-4.267-8.533-8.533-12.8 0-4.267 0-4.267-4.267-8.533-8.533-17.067-12.8-34.133-12.8-55.467v-341.333c0-21.333 4.267-42.667 17.067-64s25.6-34.133 46.933-46.933l298.667-170.667c12.8-8.533 29.867-12.8 42.667-12.8 4.267-4.267 12.8-4.267 21.333-4.267s12.8 4.267 21.333 4.267c17.067 4.267 29.867 8.533 42.667 12.8l298.667 170.667c21.333 12.8 34.133 25.6 46.933 46.933s17.067 42.667 17.067 64v341.333c0 21.333-4.267 38.4-12.8 55.467zM490.667 827.733c8.533 4.267 12.8 4.267 21.333 4.267s12.8 0 21.333-4.267l277.333-157.867-298.667-170.667-298.667 170.667 277.333 157.867zM192 238.933c-8.533 4.267-12.8 8.533-17.067 17.067s-4.267 12.8-4.267 21.333v320l298.667-170.667v-341.333l-277.333 153.6zM849.067 256c-4.267-8.533-8.533-12.8-17.067-17.067l-277.333-157.867v341.333l298.667 170.667v-315.733c0-8.533 0-12.8-4.267-21.333z" />
<glyph unicode="&#xe925;" glyph-name="briefcase" d="M853.333 704h-128v42.667c0 34.133-12.8 68.267-38.4 89.6s-55.467 38.4-89.6 38.4h-170.667c-34.133 0-68.267-12.8-89.6-38.4-25.6-21.333-38.4-55.467-38.4-89.6v-42.667h-128c-72.533 0-128-55.467-128-128v-426.667c0-72.533 55.467-128 128-128h682.667c72.533 0 128 55.467 128 128v426.667c0 72.533-55.467 128-128 128zM384 746.667c0 12.8 4.267 21.333 12.8 29.867s17.067 12.8 29.867 12.8h170.667c12.8 0 21.333-4.267 29.867-12.8s12.8-17.067 12.8-29.867v-42.667h-256v42.667zM640 618.667v-512h-256v512h256zM128 149.333v426.667c0 25.6 17.067 42.667 42.667 42.667h128v-512h-128c-25.6 0-42.667 17.067-42.667 42.667zM896 149.333c0-25.6-17.067-42.667-42.667-42.667h-128v512h128c25.6 0 42.667-17.067 42.667-42.667v-426.667z" />
<glyph unicode="&#xe926;" glyph-name="calendar" d="M810.667 832h-85.333v42.667c0 25.6-17.067 42.667-42.667 42.667s-42.667-17.067-42.667-42.667v-42.667h-256v42.667c0 25.6-17.067 42.667-42.667 42.667s-42.667-17.067-42.667-42.667v-42.667h-85.333c-72.533 0-128-55.467-128-128v-597.333c0-72.533 55.467-128 128-128h597.333c72.533 0 128 55.467 128 128v597.333c0 72.533-55.467 128-128 128zM213.333 746.667h85.333v-42.667c0-25.6 17.067-42.667 42.667-42.667s42.667 17.067 42.667 42.667v42.667h256v-42.667c0-25.6 17.067-42.667 42.667-42.667s42.667 17.067 42.667 42.667v42.667h85.333c25.6 0 42.667-17.067 42.667-42.667v-128h-682.667v128c0 25.6 17.067 42.667 42.667 42.667zM810.667 64h-597.333c-25.6 0-42.667 17.067-42.667 42.667v384h682.667v-384c0-25.6-17.067-42.667-42.667-42.667z" />
<glyph unicode="&#xe927;" glyph-name="camera-off" d="M682.667 337.067c0 0 0 0 0 0l-238.933 238.933c0 0 0 0 0 0l-157.867 157.867c0 0 0 0 0 0l-213.333 213.333c-17.067 17.067-42.667 17.067-59.733 0s-17.067-42.667 0-59.733l140.8-140.8h-25.6c-34.133 0-68.267-12.8-89.6-38.4-25.6-21.333-38.4-55.467-38.4-89.6v-469.333c0-34.133 12.8-68.267 38.4-89.6 21.333-25.6 55.467-38.4 89.6-38.4h750.933l72.533-72.533c8.533-8.533 21.333-12.8 29.867-12.8s21.333 4.267 29.867 12.8c17.067 17.067 17.067 42.667 0 59.733l-328.533 328.533zM128 106.667c-12.8 0-21.333 4.267-29.867 12.8s-12.8 17.067-12.8 29.867v469.333c0 12.8 4.267 21.333 12.8 29.867s17.067 12.8 29.867 12.8h110.933l110.933-110.933c-8.533-12.8-17.067-25.6-21.333-38.4-17.067-25.6-25.6-55.467-29.867-89.6-4.267-29.867 0-64 12.8-93.867 8.533-29.867 29.867-55.467 51.2-76.8s51.2-38.4 76.8-51.2c29.867-8.533 59.733-12.8 93.867-12.8 29.867 4.267 59.733 12.8 89.6 29.867 12.8 8.533 25.6 17.067 34.133 25.6l140.8-140.8h-669.867zM576 294.4c-17.067-8.533-34.133-17.067-51.2-17.067s-38.4 0-55.467 8.533c-17.067 4.267-34.133 17.067-46.933 29.867s-25.6 29.867-29.867 46.933c-8.533 17.067-8.533 34.133-8.533 55.467 0 17.067 8.533 38.4 17.067 51.2 4.267 4.267 8.533 12.8 12.8 17.067l179.2-179.2c-4.267-4.267-12.8-8.533-17.067-12.8zM985.6 708.267c-21.333 25.6-55.467 38.4-89.6 38.4h-149.333l-72.533 110.933c-8.533 8.533-21.333 17.067-34.133 17.067h-256c-17.067 0-34.133-8.533-38.4-25.6-8.533-17.067-4.267-34.133 8.533-46.933l597.333-610.133c8.533-8.533 21.333-12.8 29.867-12.8 4.267 0 12.8 0 17.067 4.267 17.067 8.533 25.6 21.333 25.6 38.4v396.8c0 34.133-12.8 68.267-38.4 89.6zM938.667 324.267l-452.267 465.067h132.267l72.533-110.933c8.533-8.533 21.333-17.067 34.133-17.067h170.667c12.8 0 21.333-4.267 29.867-12.8s12.8-17.067 12.8-29.867v-294.4z" />
<glyph unicode="&#xe928;" glyph-name="camera" d="M985.6 708.267c-21.333 25.6-55.467 38.4-89.6 38.4h-149.333l-72.533 110.933c-8.533 8.533-21.333 17.067-34.133 17.067h-256c-12.8 0-25.6-8.533-34.133-17.067l-72.533-110.933h-149.333c-34.133 0-68.267-12.8-89.6-38.4-25.6-21.333-38.4-55.467-38.4-89.6v-469.333c0-34.133 12.8-68.267 38.4-89.6 21.333-25.6 55.467-38.4 89.6-38.4h768c34.133 0 68.267 12.8 89.6 38.4s38.4 55.467 38.4 89.6v469.333c0 34.133-12.8 68.267-38.4 89.6zM938.667 149.333c0-12.8-4.267-21.333-12.8-29.867s-17.067-12.8-29.867-12.8h-768c-12.8 0-21.333 4.267-29.867 12.8s-12.8 17.067-12.8 29.867v469.333c0 12.8 4.267 21.333 12.8 29.867s17.067 12.8 29.867 12.8h170.667c12.8 0 25.6 8.533 34.133 17.067l72.533 110.933h209.067l72.533-110.933c12.8-8.533 25.6-17.067 38.4-17.067h170.667c12.8 0 21.333-4.267 29.867-12.8s12.8-17.067 12.8-29.867v-469.333zM512 618.667c-119.467 0-213.333-93.867-213.333-213.333s93.867-213.333 213.333-213.333 213.333 93.867 213.333 213.333c0 119.467-93.867 213.333-213.333 213.333zM512 277.333c-72.533 0-128 55.467-128 128s55.467 128 128 128 128-55.467 128-128-55.467-128-128-128z" />
<glyph unicode="&#xe929;" glyph-name="cast" d="M942.933 793.6c-21.333 25.6-55.467 38.4-89.6 38.4h-682.667c-34.133 0-68.267-12.8-89.6-38.4-25.6-21.333-38.4-55.467-38.4-89.6v-85.333c0-25.6 17.067-42.667 42.667-42.667s42.667 17.067 42.667 42.667v85.333c0 12.8 4.267 21.333 12.8 29.867s17.067 12.8 29.867 12.8h682.667c12.8 0 21.333-4.267 29.867-12.8s12.8-17.067 12.8-29.867v-512c0-12.8-4.267-21.333-12.8-29.867s-17.067-12.8-29.867-12.8h-256c-25.6 0-42.667-17.067-42.667-42.667s17.067-42.667 42.667-42.667h256c34.133 0 68.267 12.8 89.6 38.4s38.4 55.467 38.4 89.6v512c0 34.133-12.8 68.267-38.4 89.6zM85.333 149.333v0c-25.6 0-42.667-17.067-42.667-42.667s21.333-42.667 42.667-42.667 42.667 17.067 42.667 42.667-17.067 42.667-42.667 42.667zM85.333 320c-25.6 0-42.667-17.067-42.667-42.667s17.067-42.667 42.667-42.667c55.467 0 72.533-4.267 98.133-29.867 25.6-29.867 29.867-59.733 29.867-98.133 0-25.6 17.067-42.667 42.667-42.667s42.667 17.067 42.667 42.667c0 51.2-4.267 106.667-55.467 157.867s-93.867 55.467-157.867 55.467zM85.333 490.667c-25.6 0-42.667-17.067-42.667-42.667s17.067-42.667 42.667-42.667c89.6 0 162.133-25.6 217.6-81.067s81.067-123.733 81.067-217.6c0-25.6 17.067-42.667 42.667-42.667s42.667 17.067 42.667 42.667c0 115.2-34.133 204.8-106.667 277.333-72.533 68.267-166.4 106.667-277.333 106.667z" />
<glyph unicode="&#xe92a;" glyph-name="channel" d="M853.333 874.667h-682.667c-72.533 0-128-55.467-128-128v-469.333c0-72.533 55.467-128 128-128h247.467l-179.2-89.6 38.4-76.8 234.667 119.467c38.4-17.067 132.267-68.267 213.333-115.2l42.667 72.533c-55.467 34.133-119.467 68.267-162.133 89.6h247.467c72.533 0 128 55.467 128 128v469.333c0 72.533-55.467 128-128 128zM896 277.333c0-25.6-17.067-42.667-42.667-42.667h-682.667c-25.6 0-42.667 17.067-42.667 42.667v469.333c0 25.6 17.067 42.667 42.667 42.667h682.667c25.6 0 42.667-17.067 42.667-42.667v-469.333z" />
<glyph unicode="&#xe92b;" glyph-name="check-circle" d="M938.667 529.067c-25.6 0-42.667-17.067-42.667-42.667v-38.4c0-81.067-25.6-162.133-76.8-230.4-51.2-64-119.467-115.2-200.533-136.533-76.8-21.333-166.4-21.333-243.2 8.533s-145.067 81.067-187.733 149.333c-42.667 68.267-68.267 153.6-59.733 234.667 4.267 81.067 38.4 162.133 89.6 226.133 55.467 64 128 106.667 209.067 123.733s166.4 8.533 238.933-25.6c21.333-8.533 46.933 0 55.467 21.333s0 46.933-21.333 55.467c-93.867 42.667-196.267 51.2-294.4 29.867-93.867-21.333-183.467-76.8-251.733-149.333-64-76.8-102.4-174.933-110.933-277.333-4.267-98.133 21.333-200.533 76.8-285.867s136.533-149.333 230.4-183.467c51.2-21.333 106.667-29.867 162.133-29.867 46.933 0 89.6 4.267 132.267 17.067 98.133 29.867 183.467 89.6 243.2 170.667s93.867 179.2 93.867 281.6v38.4c0 25.6-17.067 42.667-42.667 42.667zM413.867 520.533c-17.067 17.067-42.667 17.067-59.733 0s-17.067-42.667 0-59.733l128-128c8.533-8.533 17.067-12.8 29.867-12.8s21.333 4.267 29.867 12.8l426.667 426.667c17.067 17.067 17.067 42.667 0 59.733s-42.667 17.067-59.733 0l-396.8-396.8-98.133 98.133z" />
<glyph unicode="&#xe92c;" glyph-name="check-square" d="M968.533 819.2c-17.067 17.067-42.667 17.067-59.733 0l-396.8-396.8-98.133 98.133c-17.067 17.067-42.667 17.067-59.733 0s-17.067-42.667 0-59.733l128-128c8.533-8.533 17.067-12.8 29.867-12.8s21.333 4.267 29.867 12.8l426.667 426.667c17.067 17.067 17.067 42.667 0 59.733zM896 490.667c-25.6 0-42.667-17.067-42.667-42.667v-298.667c0-12.8-4.267-21.333-12.8-29.867s-17.067-12.8-29.867-12.8h-597.333c-12.8 0-21.333 4.267-29.867 12.8s-12.8 17.067-12.8 29.867v597.333c0 12.8 4.267 21.333 12.8 29.867s17.067 12.8 29.867 12.8h469.333c25.6 0 42.667 17.067 42.667 42.667s-17.067 42.667-42.667 42.667h-469.333c-34.133 0-68.267-12.8-89.6-38.4-25.6-21.333-38.4-55.467-38.4-89.6v-597.333c0-34.133 12.8-68.267 38.4-89.6 21.333-25.6 55.467-38.4 89.6-38.4h597.333c34.133 0 68.267 12.8 89.6 38.4s38.4 55.467 38.4 89.6v298.667c0 25.6-17.067 42.667-42.667 42.667z" />
<glyph unicode="&#xe92d;" glyph-name="check" d="M384 192c-12.8 0-21.333 4.267-29.867 12.8l-213.333 213.333c-17.067 17.067-17.067 42.667 0 59.733s42.667 17.067 59.733 0l183.467-183.467 439.467 439.467c17.067 17.067 42.667 17.067 59.733 0s17.067-42.667 0-59.733l-469.333-469.333c-8.533-8.533-17.067-12.8-29.867-12.8z" />
<glyph unicode="&#xe92e;" glyph-name="chevron-down" d="M512 277.333c-12.8 0-21.333 4.267-29.867 12.8l-256 256c-17.067 17.067-17.067 42.667 0 59.733s42.667 17.067 59.733 0l226.133-226.133 226.133 226.133c17.067 17.067 42.667 17.067 59.733 0s17.067-42.667 0-59.733l-256-256c-8.533-8.533-17.067-12.8-29.867-12.8z" />
<glyph unicode="&#xe92f;" glyph-name="chevron-left" d="M443.733 448l226.133 226.133c17.067 17.067 17.067 42.667 0 59.733s-42.667 17.067-59.733 0l-256-256c-17.067-17.067-17.067-42.667 0-59.733l256-256c8.533-8.533 21.333-12.8 29.867-12.8s21.333 4.267 29.867 12.8c17.067 17.067 17.067 42.667 0 59.733l-226.133 226.133z" />
<glyph unicode="&#xe930;" glyph-name="chevron-right" d="M384 149.333c-12.8 0-21.333 4.267-29.867 12.8-17.067 17.067-17.067 42.667 0 59.733l226.133 226.133-226.133 226.133c-17.067 17.067-17.067 42.667 0 59.733s42.667 17.067 59.733 0l256-256c17.067-17.067 17.067-42.667 0-59.733l-256-256c-8.533-8.533-17.067-12.8-29.867-12.8z" />
<glyph unicode="&#xe931;" glyph-name="chevron-up" d="M797.867 349.867l-256 256c-17.067 17.067-42.667 17.067-59.733 0l-256-256c-17.067-17.067-17.067-42.667 0-59.733s42.667-17.067 59.733 0l226.133 226.133 226.133-226.133c8.533-8.533 21.333-12.8 29.867-12.8s21.333 4.267 29.867 12.8c17.067 17.067 17.067 42.667 0 59.733z" />
<glyph unicode="&#xe932;" glyph-name="chevrons-down" d="M695.467 435.2l-183.467-183.467-183.467 183.467c-17.067 17.067-42.667 17.067-59.733 0s-17.067-42.667 0-59.733l213.333-213.333c8.533-8.533 21.333-12.8 29.867-12.8s21.333 4.267 29.867 12.8l213.333 213.333c17.067 17.067 17.067 42.667 0 59.733s-42.667 17.067-59.733 0zM482.133 460.8c8.533-8.533 21.333-12.8 29.867-12.8s21.333 4.267 29.867 12.8l213.333 213.333c17.067 17.067 17.067 42.667 0 59.733s-42.667 17.067-59.733 0l-183.467-183.467-183.467 183.467c-17.067 17.067-42.667 17.067-59.733 0s-17.067-42.667 0-59.733l213.333-213.333z" />
<glyph unicode="&#xe933;" glyph-name="chevrons-left" d="M315.733 448l183.467 183.467c17.067 17.067 17.067 42.667 0 59.733s-42.667 17.067-59.733 0l-213.333-213.333c-17.067-17.067-17.067-42.667 0-59.733l213.333-213.333c8.533-8.533 21.333-12.8 29.867-12.8s21.333 4.267 29.867 12.8c17.067 17.067 17.067 42.667 0 59.733l-183.467 183.467zM614.4 448l183.467 183.467c17.067 17.067 17.067 42.667 0 59.733s-42.667 17.067-59.733 0l-213.333-213.333c-17.067-17.067-17.067-42.667 0-59.733l213.333-213.333c8.533-8.533 21.333-12.8 29.867-12.8s21.333 4.267 29.867 12.8c17.067 17.067 17.067 42.667 0 59.733l-183.467 183.467z" />
<glyph unicode="&#xe934;" glyph-name="chevrons-right" d="M797.867 477.867l-213.333 213.333c-17.067 17.067-42.667 17.067-59.733 0s-17.067-42.667 0-59.733l183.467-183.467-183.467-183.467c-17.067-17.067-17.067-42.667 0-59.733 8.533-8.533 21.333-12.8 29.867-12.8s21.333 4.267 29.867 12.8l213.333 213.333c17.067 17.067 17.067 42.667 0 59.733zM499.2 477.867l-213.333 213.333c-17.067 17.067-42.667 17.067-59.733 0s-17.067-42.667 0-59.733l183.467-183.467-183.467-183.467c-17.067-17.067-17.067-42.667 0-59.733 8.533-8.533 17.067-12.8 29.867-12.8s21.333 4.267 29.867 12.8l213.333 213.333c17.067 17.067 17.067 42.667 0 59.733z" />
<glyph unicode="&#xe935;" glyph-name="chevrons-up" d="M328.533 460.8l183.467 183.467 183.467-183.467c8.533-8.533 21.333-12.8 29.867-12.8s21.333 4.267 29.867 12.8c17.067 17.067 17.067 42.667 0 59.733l-213.333 213.333c-17.067 17.067-42.667 17.067-59.733 0l-213.333-213.333c-17.067-17.067-17.067-42.667 0-59.733s42.667-17.067 59.733 0zM541.867 435.2c-17.067 17.067-42.667 17.067-59.733 0l-213.333-213.333c-17.067-17.067-17.067-42.667 0-59.733s42.667-17.067 59.733 0l183.467 183.467 183.467-183.467c8.533-8.533 21.333-12.8 29.867-12.8s21.333 4.267 29.867 12.8c17.067 17.067 17.067 42.667 0 59.733l-213.333 213.333z" />
<glyph unicode="&#xe936;" glyph-name="chrome" d="M942.933 631.467c0 4.267 0 4.267 0 0-76.8 170.667-238.933 285.867-430.933 285.867-153.6 0-290.133-72.533-375.467-187.733 0-4.267-4.267-4.267-4.267-8.533-55.467-76.8-89.6-170.667-89.6-273.067 0-238.933 179.2-435.2 409.6-465.067 0 0 4.267 0 4.267 0 17.067 0 38.4-4.267 55.467-4.267 260.267 0 469.333 209.067 469.333 469.333 0 64-12.8 128-38.4 183.467zM512 832c132.267 0 251.733-68.267 320-170.667h-320c-89.6 0-162.133-55.467-196.267-128l-93.867 162.133c68.267 85.333 174.933 136.533 290.133 136.533zM640 448c0-72.533-55.467-128-128-128s-128 55.467-128 128c0 72.533 55.467 128 128 128s128-55.467 128-128zM128 448c0 59.733 12.8 119.467 38.4 170.667l157.867-277.333c0 0 0-4.267 4.267-4.267 38.4-59.733 106.667-102.4 183.467-102.4 8.533 0 17.067 0 25.6 4.267l-98.133-166.4c-174.933 29.867-311.467 187.733-311.467 375.467zM537.6 64l157.867 277.333c0 0 0 4.267 0 4.267 17.067 29.867 25.6 64 25.6 102.4 0 46.933-17.067 93.867-42.667 128h192c12.8-38.4 21.333-81.067 21.333-128 4.267-204.8-153.6-371.2-354.133-384z" />
<glyph unicode="&#xe937;" glyph-name="circle" d="M512 917.333c-260.267 0-469.333-209.067-469.333-469.333s209.067-469.333 469.333-469.333 469.333 209.067 469.333 469.333c0 260.267-209.067 469.333-469.333 469.333zM512 64c-213.333 0-384 170.667-384 384s170.667 384 384 384c213.333 0 384-170.667 384-384s-170.667-384-384-384z" />
<glyph unicode="&#xe938;" glyph-name="clipboard" d="M857.6 793.6c-21.333 25.6-55.467 38.4-89.6 38.4h-42.667c0 46.933-38.4 85.333-85.333 85.333h-256c-46.933 0-85.333-38.4-85.333-85.333h-42.667c-34.133 0-68.267-12.8-89.6-38.4-25.6-21.333-38.4-55.467-38.4-89.6v-597.333c0-34.133 12.8-68.267 38.4-89.6 21.333-25.6 55.467-38.4 89.6-38.4h512c34.133 0 68.267 12.8 89.6 38.4s38.4 55.467 38.4 89.6v597.333c0 34.133-12.8 68.267-38.4 89.6zM384 832h256v-85.333h-256v85.333zM810.667 106.667c0-12.8-4.267-21.333-12.8-29.867s-17.067-12.8-29.867-12.8h-512c-12.8 0-21.333 4.267-29.867 12.8s-12.8 17.067-12.8 29.867v597.333c0 12.8 4.267 21.333 12.8 29.867s17.067 12.8 29.867 12.8h42.667c0-46.933 38.4-85.333 85.333-85.333h256c46.933 0 85.333 38.4 85.333 85.333h42.667c12.8 0 21.333-4.267 29.867-12.8s12.8-17.067 12.8-29.867v-597.333z" />
<glyph unicode="&#xe939;" glyph-name="clock" d="M512 917.333c-260.267 0-469.333-209.067-469.333-469.333s209.067-469.333 469.333-469.333 469.333 209.067 469.333 469.333c0 260.267-209.067 469.333-469.333 469.333zM512 64c-213.333 0-384 170.667-384 384s170.667 384 384 384c213.333 0 384-170.667 384-384s-170.667-384-384-384zM699.733 401.067l-145.067 72.533v230.4c0 25.6-17.067 42.667-42.667 42.667s-42.667-17.067-42.667-42.667v-256c0-17.067 8.533-29.867 25.6-38.4l170.667-85.333c4.267-4.267 8.533-4.267 17.067-4.267 17.067 0 29.867 8.533 38.4 25.6s0 42.667-21.333 55.467z" />
<glyph unicode="&#xe93a;" glyph-name="cloud-drizzle" d="M341.333 192c-25.6 0-42.667-17.067-42.667-42.667v-85.333c0-25.6 17.067-42.667 42.667-42.667s42.667 17.067 42.667 42.667v85.333c0 25.6-17.067 42.667-42.667 42.667zM341.333 448c-25.6 0-42.667-17.067-42.667-42.667v-85.333c0-25.6 17.067-42.667 42.667-42.667s42.667 17.067 42.667 42.667v85.333c0 25.6-17.067 42.667-42.667 42.667zM682.667 192c-25.6 0-42.667-17.067-42.667-42.667v-85.333c0-25.6 17.067-42.667 42.667-42.667s42.667 17.067 42.667 42.667v85.333c0 25.6-17.067 42.667-42.667 42.667zM682.667 448c-25.6 0-42.667-17.067-42.667-42.667v-85.333c0-25.6 17.067-42.667 42.667-42.667s42.667 17.067 42.667 42.667v85.333c0 25.6-17.067 42.667-42.667 42.667zM512 106.667c-25.6 0-42.667-17.067-42.667-42.667v-85.333c0-25.6 17.067-42.667 42.667-42.667s42.667 17.067 42.667 42.667v85.333c0 25.6-17.067 42.667-42.667 42.667zM512 362.667c-25.6 0-42.667-17.067-42.667-42.667v-85.333c0-25.6 17.067-42.667 42.667-42.667s42.667 17.067 42.667 42.667v85.333c0 25.6-17.067 42.667-42.667 42.667zM1019.733 499.2c-12.8 55.467-42.667 110.933-89.6 145.067-46.933 38.4-102.4 59.733-162.133 59.733h-21.333c-17.067 46.933-42.667 89.6-76.8 128-38.4 46.933-89.6 81.067-149.333 102.4-55.467 21.333-115.2 29.867-174.933 25.6s-119.467-25.6-170.667-59.733c-51.2-34.133-93.867-81.067-123.733-132.267s-46.933-110.933-51.2-174.933c-4.267-59.733 8.533-123.733 34.133-174.933 25.6-55.467 64-102.4 110.933-140.8 17.067-12.8 46.933-12.8 59.733 8.533 12.8 17.067 12.8 46.933-8.533 59.733-38.4 29.867-68.267 68.267-85.333 110.933-21.333 42.667-29.867 89.6-25.6 136.533s17.067 93.867 38.4 132.267c25.6 42.667 55.467 76.8 98.133 102.4 38.4 25.6 85.333 42.667 132.267 46.933s93.867 0 140.8-17.067 85.333-42.667 115.2-81.067c29.867-34.133 55.467-76.8 64-123.733 4.267-17.067 21.333-29.867 42.667-29.867h51.2c38.4 0 76.8-12.8 106.667-38.4s51.2-59.733 59.733-98.133c8.533-38.4 4.267-76.8-17.067-115.2-17.067-34.133-46.933-64-85.333-76.8-21.333-8.533-29.867-34.133-21.333-55.467 8.533-17.067 21.333-25.6 38.4-25.6 4.267 0 12.8 0 17.067 4.267 55.467 25.6 98.133 64 123.733 115.2s38.4 110.933 29.867 166.4z" />
<glyph unicode="&#xe93b;" glyph-name="cloud-lightning" d="M1024 473.6c-4.267 64-34.133 123.733-81.067 166.4s-106.667 64-170.667 64c0 0 0 0 0 0h-21.333c-17.067 51.2-42.667 93.867-81.067 132.267-42.667 46.933-98.133 81.067-157.867 102.4-64 21.333-128 25.6-192 17.067-59.733-12.8-119.467-38.4-170.667-76.8s-89.6-89.6-115.2-149.333c-25.6-55.467-38.4-119.467-34.133-183.467s25.6-123.733 59.733-179.2c34.133-51.2 81.067-98.133 136.533-128 21.333-8.533 46.933-4.267 59.733 17.067s4.267 46.933-17.067 59.733c-42.667 25.6-81.067 59.733-106.667 98.133-25.6 42.667-42.667 89.6-46.933 136.533s4.267 98.133 25.6 145.067c21.333 46.933 51.2 85.333 89.6 115.2s85.333 51.2 132.267 59.733c51.2 8.533 102.4 4.267 149.333-12.8s89.6-42.667 123.733-81.067c34.133-34.133 59.733-81.067 68.267-128 4.267-17.067 21.333-34.133 42.667-34.133h51.2c0 0 0 0 0 0 42.667 0 81.067-17.067 115.2-42.667 29.867-29.867 51.2-68.267 55.467-110.933s-8.533-85.333-34.133-119.467c-25.6-34.133-59.733-55.467-102.4-64-21.333-4.267-38.4-25.6-34.133-51.2 4.267-21.333 21.333-34.133 42.667-34.133 4.267 0 4.267 0 8.533 0 64 12.8 119.467 46.933 153.6 98.133 38.4 55.467 55.467 119.467 51.2 183.467zM640 277.333h-174.933l128 187.733c12.8 21.333 8.533 46.933-12.8 59.733s-46.933 8.533-59.733-12.8l-170.667-256c-8.533-12.8-8.533-29.867 0-42.667 4.267-12.8 17.067-21.333 34.133-21.333h174.933l-128-187.733c-12.8-21.333-8.533-46.933 12.8-59.733 8.533-4.267 17.067-8.533 25.6-8.533 12.8 0 25.6 8.533 34.133 17.067l170.667 256c8.533 12.8 8.533 29.867 0 42.667s-17.067 25.6-34.133 25.6z" />
<glyph unicode="&#xe93c;" glyph-name="cloud-off" d="M384 746.667c34.133 0 64-4.267 98.133-17.067 46.933-17.067 89.6-42.667 123.733-81.067 34.133-34.133 59.733-81.067 68.267-128 4.267-17.067 21.333-34.133 42.667-34.133h51.2c0 0 0 0 0 0 42.667 0 81.067-17.067 115.2-42.667 29.867-29.867 51.2-68.267 55.467-110.933 4.267-46.933 4.267-64-21.333-98.133-12.8-17.067-8.533-46.933 8.533-59.733 8.533-4.267 17.067-8.533 25.6-8.533 12.8 0 25.6 4.267 34.133 17.067 38.4 51.2 42.667 93.867 38.4 157.867s-34.133 123.733-81.067 166.4c-46.933 42.667-106.667 64-170.667 64 0 0 0 0 0 0h-21.333c-17.067 51.2-42.667 93.867-81.067 132.267-42.667 46.933-98.133 81.067-157.867 102.4-42.667 17.067-85.333 25.6-128 25.6 0 0 0 0 0 0-21.333 0-42.667-17.067-42.667-42.667s21.333-42.667 42.667-42.667zM640 149.333h-256c-68.267 0-132.267 21.333-183.467 59.733s-89.6 98.133-106.667 162.133c-17.067 64-12.8 132.267 12.8 192 8.533 21.333 21.333 42.667 34.133 64 12.8 17.067 8.533 46.933-8.533 59.733s-46.933 8.533-59.733-8.533c-21.333-25.6-34.133-51.2-46.933-81.067-34.133-76.8-38.4-166.4-17.067-247.467s72.533-157.867 140.8-209.067c64-51.2 145.067-76.8 230.4-76.8 0 0 4.267 0 4.267 0h256c25.6 0 42.667 17.067 42.667 42.667s-17.067 42.667-42.667 42.667zM72.533 947.2c-17.067 17.067-42.667 17.067-59.733 0s-17.067-42.667 0-59.733l938.667-938.667c8.533-8.533 21.333-12.8 29.867-12.8s21.333 4.267 29.867 12.8c17.067 17.067 17.067 42.667 0 59.733l-938.667 938.667z" />
<glyph unicode="&#xe93d;" glyph-name="cloud-rain" d="M682.667 448c-25.6 0-42.667-17.067-42.667-42.667v-341.333c0-25.6 17.067-42.667 42.667-42.667s42.667 17.067 42.667 42.667v341.333c0 25.6-17.067 42.667-42.667 42.667zM341.333 448c-25.6 0-42.667-17.067-42.667-42.667v-341.333c0-25.6 17.067-42.667 42.667-42.667s42.667 17.067 42.667 42.667v341.333c0 25.6-17.067 42.667-42.667 42.667zM512 362.667c-25.6 0-42.667-17.067-42.667-42.667v-341.333c0-25.6 17.067-42.667 42.667-42.667s42.667 17.067 42.667 42.667v341.333c0 25.6-17.067 42.667-42.667 42.667zM1019.733 499.2c-12.8 55.467-42.667 110.933-89.6 145.067-46.933 38.4-102.4 59.733-162.133 59.733h-21.333c-17.067 46.933-42.667 89.6-76.8 128-38.4 46.933-89.6 81.067-149.333 102.4-55.467 21.333-115.2 29.867-174.933 25.6s-119.467-25.6-170.667-59.733c-51.2-34.133-93.867-81.067-123.733-132.267s-46.933-110.933-51.2-174.933c-4.267-59.733 8.533-123.733 34.133-174.933 25.6-55.467 64-102.4 110.933-140.8 17.067-12.8 46.933-12.8 59.733 8.533 12.8 17.067 12.8 46.933-8.533 59.733-38.4 29.867-68.267 68.267-85.333 110.933-21.333 42.667-29.867 89.6-25.6 136.533s17.067 93.867 38.4 132.267c25.6 42.667 55.467 76.8 98.133 102.4 38.4 25.6 85.333 42.667 132.267 46.933s93.867 0 140.8-17.067 85.333-42.667 115.2-81.067c29.867-34.133 55.467-76.8 64-123.733 4.267-17.067 21.333-29.867 42.667-29.867h51.2c38.4 0 76.8-12.8 106.667-38.4s51.2-59.733 59.733-98.133c8.533-38.4 4.267-76.8-17.067-115.2-17.067-34.133-46.933-64-85.333-76.8-21.333-8.533-29.867-34.133-21.333-55.467 8.533-17.067 21.333-25.6 38.4-25.6 4.267 0 12.8 0 17.067 4.267 55.467 25.6 98.133 64 123.733 115.2 34.133 51.2 38.4 110.933 29.867 166.4z" />
<glyph unicode="&#xe93e;" glyph-name="cloud-snow" d="M1019.733 456.533c-12.8 55.467-42.667 110.933-89.6 145.067-46.933 38.4-102.4 59.733-162.133 59.733h-21.333c-17.067 46.933-42.667 89.6-76.8 128-38.4 46.933-89.6 81.067-149.333 102.4-55.467 21.333-115.2 29.867-174.933 25.6s-119.467-25.6-170.667-59.733c-51.2-34.133-93.867-81.067-123.733-132.267s-46.933-110.933-51.2-174.933c-4.267-59.733 8.533-123.733 34.133-174.933 25.6-55.467 64-102.4 110.933-140.8 17.067-12.8 46.933-12.8 59.733 8.533 12.8 17.067 12.8 46.933-8.533 59.733-38.4 29.867-68.267 68.267-85.333 110.933-21.333 42.667-29.867 89.6-25.6 136.533s17.067 93.867 38.4 132.267c25.6 42.667 55.467 76.8 98.133 102.4 38.4 25.6 85.333 42.667 132.267 46.933s93.867 0 140.8-17.067 85.333-42.667 115.2-81.067c29.867-34.133 55.467-76.8 64-123.733 4.267-17.067 21.333-29.867 42.667-29.867h51.2c38.4 0 76.8-12.8 106.667-38.4s51.2-59.733 59.733-98.133c8.533-38.4 4.267-76.8-17.067-115.2-17.067-34.133-46.933-64-85.333-76.8-21.333-8.533-29.867-34.133-21.333-55.467 8.533-17.067 21.333-25.6 38.4-25.6 4.267 0 12.8 0 17.067 4.267 55.467 25.6 98.133 64 123.733 115.2 34.133 51.2 38.4 110.933 29.867 166.4zM341.333 320v0c-25.6 0-42.667-17.067-42.667-42.667s21.333-42.667 42.667-42.667 42.667 17.067 42.667 42.667-17.067 42.667-42.667 42.667zM341.333 149.333v0c-25.6 0-42.667-17.067-42.667-42.667s21.333-42.667 42.667-42.667 42.667 17.067 42.667 42.667-17.067 42.667-42.667 42.667zM512 234.667v0c-25.6 0-42.667-17.067-42.667-42.667s21.333-42.667 42.667-42.667 42.667 17.067 42.667 42.667-17.067 42.667-42.667 42.667zM512 64v0c-25.6 0-42.667-17.067-42.667-42.667s21.333-42.667 42.667-42.667 42.667 17.067 42.667 42.667-17.067 42.667-42.667 42.667zM682.667 320v0c-25.6 0-42.667-17.067-42.667-42.667s21.333-42.667 42.667-42.667 42.667 17.067 42.667 42.667-17.067 42.667-42.667 42.667zM682.667 149.333v0c-25.6 0-42.667-17.067-42.667-42.667s21.333-42.667 42.667-42.667 42.667 17.067 42.667 42.667-17.067 42.667-42.667 42.667z" />
<glyph unicode="&#xe93f;" glyph-name="cloud" d="M947.2 499.2c-46.933 51.2-110.933 76.8-179.2 76.8h-21.333c-21.333 55.467-51.2 106.667-98.133 149.333-51.2 51.2-115.2 85.333-187.733 98.133-68.267 17.067-145.067 8.533-209.067-17.067-68.267-25.6-128-68.267-170.667-123.733s-72.533-123.733-76.8-196.267c-8.533-72.533 4.267-145.067 38.4-209.067 29.867-64 81.067-119.467 140.8-157.867 59.733-34.133 128-55.467 200.533-55.467 0 0 0 0 0 0h384c68.267 0 132.267 25.6 179.2 76.8 46.933 46.933 76.8 110.933 76.8 179.2s-25.6 132.267-76.8 179.2zM887.467 200.533c-29.867-34.133-72.533-51.2-119.467-51.2h-384c0 0 0 0 0 0-55.467 0-110.933 17.067-157.867 46.933s-85.333 72.533-110.933 123.733c-25.6 51.2-34.133 106.667-29.867 162.133 8.533 51.2 29.867 102.4 64 149.333s81.067 76.8 132.267 98.133c29.867 12.8 68.267 17.067 102.4 17.067 21.333 0 38.4 0 59.733-4.267 55.467-12.8 106.667-38.4 145.067-76.8 42.667-38.4 68.267-89.6 85.333-140.8 4.267-17.067 21.333-34.133 42.667-34.133h51.2c46.933 0 89.6-17.067 119.467-51.2 34.133-34.133 51.2-76.8 51.2-119.467 0-46.933-17.067-89.6-51.2-119.467z" />
<glyph unicode="&#xe940;" glyph-name="coffee" d="M960 597.333c-38.4 42.667-93.867 64-149.333 64h-725.333c-25.6 0-42.667-17.067-42.667-42.667v-384c0-55.467 21.333-110.933 64-149.333 38.4-42.667 93.867-64 149.333-64h341.333c55.467 0 110.933 21.333 149.333 64s64 93.867 64 149.333c55.467 0 110.933 21.333 149.333 64s64 93.867 64 149.333c0 55.467-21.333 110.933-64 149.333zM725.333 234.667c0-34.133-12.8-68.267-38.4-89.6s-55.467-38.4-89.6-38.4h-341.333c-34.133 0-68.267 12.8-89.6 38.4-25.6 21.333-38.4 55.467-38.4 89.6v341.333h597.333v-341.333zM900.267 358.4c-21.333-25.6-55.467-38.4-89.6-38.4v256c34.133 0 68.267-12.8 89.6-38.4 25.6-25.6 38.4-55.467 38.4-89.6s-12.8-68.267-38.4-89.6zM256 746.667c25.6 0 42.667 17.067 42.667 42.667v128c0 25.6-17.067 42.667-42.667 42.667s-42.667-17.067-42.667-42.667v-128c0-25.6 17.067-42.667 42.667-42.667zM426.667 746.667c25.6 0 42.667 17.067 42.667 42.667v128c0 25.6-17.067 42.667-42.667 42.667s-42.667-17.067-42.667-42.667v-128c0-25.6 17.067-42.667 42.667-42.667zM597.333 746.667c25.6 0 42.667 17.067 42.667 42.667v128c0 25.6-17.067 42.667-42.667 42.667s-42.667-17.067-42.667-42.667v-128c0-25.6 17.067-42.667 42.667-42.667z" />
<glyph unicode="&#xe941;" glyph-name="columns" d="M810.667 21.333h-597.333c-34.133 0-68.267 12.8-89.6 38.4-25.6 21.333-38.4 55.467-38.4 89.6v597.333c0 34.133 12.8 68.267 38.4 89.6 21.333 25.6 55.467 38.4 89.6 38.4h597.333c34.133 0 68.267-12.8 89.6-38.4s38.4-55.467 38.4-89.6v-597.333c0-34.133-12.8-68.267-38.4-89.6s-55.467-38.4-89.6-38.4zM554.667 106.667h256c12.8 0 21.333 4.267 29.867 12.8s12.8 17.067 12.8 29.867v597.333c0 12.8-4.267 21.333-12.8 29.867s-17.067 12.8-29.867 12.8h-256v-682.667zM213.333 789.333c-12.8 0-21.333-4.267-29.867-12.8s-12.8-17.067-12.8-29.867v-597.333c0-12.8 4.267-21.333 12.8-29.867s17.067-12.8 29.867-12.8h256v682.667h-256z" />
<glyph unicode="&#xe942;" glyph-name="command" d="M768 21.333c-46.933 0-89.6 17.067-119.467 51.2-34.133 29.867-51.2 72.533-51.2 119.467v85.333h-170.667v-85.333c0-46.933-17.067-89.6-51.2-119.467-64-64-174.933-64-243.2 0-29.867 29.867-46.933 72.533-46.933 119.467s17.067 89.6 51.2 119.467c29.867 34.133 72.533 51.2 119.467 51.2h85.333v170.667h-85.333c-46.933 0-89.6 17.067-119.467 51.2-34.133 29.867-51.2 72.533-51.2 119.467s17.067 89.6 51.2 119.467c64 64 174.933 64 243.2 0 29.867-29.867 46.933-72.533 46.933-119.467v-85.333h170.667v85.333c0 46.933 17.067 89.6 51.2 119.467 64 64 174.933 64 243.2 0 29.867-29.867 46.933-72.533 46.933-119.467s-17.067-89.6-51.2-119.467c-29.867-34.133-72.533-51.2-119.467-51.2h-85.333v-170.667h85.333c46.933 0 89.6-17.067 119.467-51.2 34.133-34.133 51.2-76.8 51.2-119.467 0-46.933-17.067-89.6-51.2-119.467-29.867-34.133-72.533-51.2-119.467-51.2zM682.667 277.333v-85.333c0-21.333 8.533-42.667 25.6-59.733 34.133-34.133 89.6-34.133 119.467 0 17.067 17.067 25.6 38.4 25.6 59.733s-8.533 42.667-25.6 59.733c-17.067 17.067-38.4 25.6-59.733 25.6h-85.333zM256 277.333c-21.333 0-42.667-8.533-59.733-25.6s-25.6-38.4-25.6-59.733c0-21.333 8.533-42.667 25.6-59.733 29.867-29.867 89.6-29.867 119.467 0 17.067 17.067 25.6 38.4 25.6 59.733v85.333h-85.333zM426.667 362.667h170.667v170.667h-170.667v-170.667zM682.667 618.667h85.333c21.333 0 42.667 8.533 59.733 25.6s25.6 38.4 25.6 59.733c0 21.333-8.533 42.667-25.6 59.733-34.133 34.133-89.6 34.133-119.467 0-17.067-17.067-25.6-38.4-25.6-59.733v-85.333zM256 789.333c-21.333 0-42.667-8.533-59.733-25.6s-25.6-38.4-25.6-59.733 8.533-42.667 25.6-59.733c17.067-17.067 38.4-25.6 59.733-25.6h85.333v85.333c0 21.333-8.533 42.667-25.6 59.733s-38.4 25.6-59.733 25.6z" />
<glyph unicode="&#xe943;" glyph-name="compass" d="M512 917.333c-260.267 0-469.333-209.067-469.333-469.333s209.067-469.333 469.333-469.333 469.333 209.067 469.333 469.333c0 260.267-209.067 469.333-469.333 469.333zM512 64c-213.333 0-384 170.667-384 384s170.667 384 384 384c213.333 0 384-170.667 384-384s-170.667-384-384-384zM678.4 669.867l-268.8-89.6c-12.8-4.267-25.6-17.067-29.867-29.867l-89.6-273.067c-4.267-17.067 0-34.133 8.533-42.667s17.067-12.8 29.867-12.8c4.267 0 8.533 0 12.8 4.267l273.067 89.6c12.8 4.267 21.333 12.8 25.6 25.6l89.6 273.067c4.267 17.067 0 34.133-8.533 42.667-8.533 12.8-25.6 17.067-42.667 12.8zM567.467 392.533l-170.667-55.467 55.467 170.667 170.667 55.467-55.467-170.667z" />
<glyph unicode="&#xe944;" glyph-name="copy" d="M853.333 618.667h-384c-72.533 0-128-55.467-128-128v-384c0-72.533 55.467-128 128-128h384c72.533 0 128 55.467 128 128v384c0 72.533-55.467 128-128 128zM896 106.667c0-25.6-17.067-42.667-42.667-42.667h-384c-25.6 0-42.667 17.067-42.667 42.667v384c0 25.6 17.067 42.667 42.667 42.667h384c25.6 0 42.667-17.067 42.667-42.667v-384zM213.333 362.667h-42.667c-12.8 0-21.333 4.267-29.867 12.8s-12.8 17.067-12.8 29.867v384c0 12.8 4.267 21.333 12.8 29.867s17.067 12.8 29.867 12.8h384c12.8 0 21.333-4.267 29.867-12.8s12.8-17.067 12.8-29.867v-42.667c0-25.6 17.067-42.667 42.667-42.667s42.667 17.067 42.667 42.667v42.667c0 34.133-12.8 68.267-38.4 89.6s-55.467 38.4-89.6 38.4h-384c-34.133 0-68.267-12.8-89.6-38.4-25.6-21.333-38.4-55.467-38.4-89.6v-384c0-34.133 12.8-68.267 38.4-89.6 21.333-25.6 55.467-38.4 89.6-38.4h42.667c25.6 0 42.667 17.067 42.667 42.667s-17.067 42.667-42.667 42.667z" />
<glyph unicode="&#xe945;" glyph-name="corner-down-left" d="M853.333 832c-25.6 0-42.667-17.067-42.667-42.667v-298.667c0-34.133-12.8-68.267-38.4-89.6-21.333-25.6-55.467-38.4-89.6-38.4h-409.6l140.8 140.8c17.067 17.067 17.067 42.667 0 59.733s-42.667 17.067-59.733 0l-213.333-213.333c-4.267-4.267-8.533-8.533-8.533-12.8-4.267-8.533-4.267-21.333 0-34.133 4.267-4.267 4.267-8.533 8.533-12.8l213.333-213.333c8.533-8.533 17.067-12.8 29.867-12.8s21.333 4.267 29.867 12.8c17.067 17.067 17.067 42.667 0 59.733l-140.8 140.8h409.6c55.467 0 110.933 21.333 149.333 64s64 93.867 64 149.333v298.667c0 25.6-17.067 42.667-42.667 42.667z" />
<glyph unicode="&#xe946;" glyph-name="corner-down-right" d="M891.733 302.933c4.267 8.533 4.267 21.333 0 34.133-4.267 4.267-4.267 8.533-8.533 12.8l-213.333 213.333c-17.067 17.067-42.667 17.067-59.733 0s-17.067-42.667 0-59.733l140.8-140.8h-409.6c-34.133 0-68.267 12.8-89.6 38.4-25.6 21.333-38.4 55.467-38.4 89.6v298.667c0 25.6-17.067 42.667-42.667 42.667s-42.667-17.067-42.667-42.667v-298.667c0-55.467 21.333-110.933 64-149.333 38.4-42.667 93.867-64 149.333-64h409.6l-140.8-140.8c-17.067-17.067-17.067-42.667 0-59.733 8.533-8.533 21.333-12.8 29.867-12.8s21.333 4.267 29.867 12.8l213.333 213.333c4.267 4.267 8.533 8.533 8.533 12.8z" />
<glyph unicode="&#xe947;" glyph-name="corner-left-down" d="M853.333 832h-298.667c-55.467 0-110.933-21.333-149.333-64-42.667-38.4-64-93.867-64-149.333v-409.6l-140.8 140.8c-17.067 17.067-42.667 17.067-59.733 0s-17.067-42.667 0-59.733l213.333-213.333c4.267-4.267 8.533-8.533 12.8-8.533 4.267-4.267 12.8-4.267 17.067-4.267s12.8 0 17.067 4.267c4.267 4.267 8.533 4.267 12.8 8.533l213.333 213.333c17.067 17.067 17.067 42.667 0 59.733s-42.667 17.067-59.733 0l-140.8-140.8v409.6c0 34.133 12.8 68.267 38.4 89.6 21.333 25.6 55.467 38.4 89.6 38.4h298.667c25.6 0 42.667 17.067 42.667 42.667s-17.067 42.667-42.667 42.667z" />
<glyph unicode="&#xe948;" glyph-name="corner-left-up" d="M853.333 149.333h-298.667c-34.133 0-68.267 12.8-89.6 38.4-25.6 21.333-38.4 55.467-38.4 89.6v409.6l140.8-140.8c8.533-8.533 17.067-12.8 29.867-12.8s21.333 4.267 29.867 12.8c17.067 17.067 17.067 42.667 0 59.733l-213.333 213.333c-4.267 4.267-8.533 8.533-12.8 8.533-12.8 4.267-21.333 4.267-34.133 0-4.267 0-8.533-4.267-12.8-8.533l-213.333-213.333c-17.067-17.067-17.067-42.667 0-59.733s42.667-17.067 59.733 0l140.8 140.8v-409.6c0-55.467 21.333-110.933 64-149.333 38.4-38.4 93.867-64 149.333-64h298.667c25.6 0 42.667 17.067 42.667 42.667s-17.067 42.667-42.667 42.667z" />
<glyph unicode="&#xe949;" glyph-name="corner-right-down" d="M883.2 349.867c-17.067 17.067-42.667 17.067-59.733 0l-140.8-140.8v409.6c0 55.467-21.333 110.933-64 149.333-38.4 42.667-93.867 64-149.333 64h-298.667c-25.6 0-42.667-17.067-42.667-42.667s17.067-42.667 42.667-42.667h298.667c34.133 0 68.267-12.8 89.6-38.4 25.6-21.333 38.4-55.467 38.4-89.6v-409.6l-140.8 140.8c-17.067 17.067-42.667 17.067-59.733 0s-17.067-42.667 0-59.733l213.333-213.333c4.267-4.267 8.533-8.533 12.8-8.533 4.267-4.267 12.8-4.267 17.067-4.267s12.8 0 17.067 4.267c4.267 4.267 8.533 4.267 12.8 8.533l213.333 213.333c17.067 17.067 17.067 42.667 0 59.733z" />
<glyph unicode="&#xe94a;" glyph-name="corner-right-up" d="M883.2 605.867l-213.333 213.333c-4.267 4.267-8.533 8.533-12.8 8.533-8.533 4.267-21.333 4.267-34.133 0-4.267-4.267-8.533-4.267-12.8-8.533l-213.333-213.333c-17.067-17.067-17.067-42.667 0-59.733s42.667-17.067 59.733 0l140.8 140.8v-409.6c0-34.133-12.8-68.267-38.4-89.6-21.333-25.6-55.467-38.4-89.6-38.4h-298.667c-25.6 0-42.667-17.067-42.667-42.667s17.067-42.667 42.667-42.667h298.667c55.467 0 110.933 21.333 149.333 64s64 93.867 64 149.333v409.6l140.8-140.8c8.533-8.533 17.067-12.8 29.867-12.8s21.333 4.267 29.867 12.8c17.067 17.067 17.067 42.667 0 59.733z" />
<glyph unicode="&#xe94b;" glyph-name="corner-up-left" d="M832 554.667c-38.4 42.667-93.867 64-149.333 64h-409.6l140.8 140.8c17.067 17.067 17.067 42.667 0 59.733s-42.667 17.067-59.733 0l-213.333-213.333c-4.267-4.267-8.533-8.533-8.533-12.8-4.267-12.8-4.267-21.333 0-34.133 4.267-4.267 4.267-8.533 8.533-12.8l213.333-213.333c8.533-8.533 17.067-12.8 29.867-12.8s21.333 4.267 29.867 12.8c17.067 17.067 17.067 42.667 0 59.733l-140.8 140.8h409.6c34.133 0 68.267-12.8 89.6-38.4s38.4-55.467 38.4-89.6v-298.667c0-25.6 17.067-42.667 42.667-42.667s42.667 17.067 42.667 42.667v298.667c0 55.467-21.333 110.933-64 149.333z" />
<glyph unicode="&#xe94c;" glyph-name="corner-up-right" d="M891.733 558.933c4.267 8.533 4.267 21.333 0 34.133-4.267 4.267-4.267 8.533-8.533 12.8l-213.333 213.333c-17.067 17.067-42.667 17.067-59.733 0s-17.067-42.667 0-59.733l140.8-140.8h-409.6c-55.467 0-110.933-21.333-149.333-64-42.667-38.4-64-93.867-64-149.333v-298.667c0-25.6 17.067-42.667 42.667-42.667s42.667 17.067 42.667 42.667v298.667c0 34.133 12.8 68.267 38.4 89.6 21.333 25.6 55.467 38.4 89.6 38.4h409.6l-140.8-140.8c-17.067-17.067-17.067-42.667 0-59.733 8.533-8.533 21.333-12.8 29.867-12.8s21.333 4.267 29.867 12.8l213.333 213.333c4.267 4.267 8.533 8.533 8.533 12.8z" />
<glyph unicode="&#xe94d;" glyph-name="cpu" d="M640 618.667h-256c-25.6 0-42.667-17.067-42.667-42.667v-256c0-25.6 17.067-42.667 42.667-42.667h256c25.6 0 42.667 17.067 42.667 42.667v256c0 25.6-17.067 42.667-42.667 42.667zM597.333 362.667h-170.667v170.667h170.667v-170.667zM981.333 405.333h-85.333v128h85.333c25.6 0 42.667 17.067 42.667 42.667s-17.067 42.667-42.667 42.667h-85.333v85.333c0 72.533-55.467 128-128 128h-85.333v85.333c0 25.6-17.067 42.667-42.667 42.667s-42.667-17.067-42.667-42.667v-85.333h-170.667v85.333c0 25.6-17.067 42.667-42.667 42.667s-42.667-17.067-42.667-42.667v-85.333h-85.333c-72.533 0-128-55.467-128-128v-85.333h-85.333c-25.6 0-42.667-17.067-42.667-42.667s17.067-42.667 42.667-42.667h85.333v-128h-85.333c-25.6 0-42.667-17.067-42.667-42.667s17.067-42.667 42.667-42.667h85.333v-128c0-72.533 55.467-128 128-128h85.333v-85.333c0-25.6 17.067-42.667 42.667-42.667s42.667 17.067 42.667 42.667v85.333h170.667v-85.333c0-25.6 17.067-42.667 42.667-42.667s42.667 17.067 42.667 42.667v85.333h85.333c72.533 0 128 55.467 128 128v128h85.333c25.6 0 42.667 17.067 42.667 42.667s-17.067 42.667-42.667 42.667zM810.667 192c0-25.6-17.067-42.667-42.667-42.667h-512c-25.6 0-42.667 17.067-42.667 42.667v512c0 25.6 17.067 42.667 42.667 42.667h512c25.6 0 42.667-17.067 42.667-42.667v-512z" />
<glyph unicode="&#xe94e;" glyph-name="credit-card" d="M896 832h-768c-72.533 0-128-55.467-128-128v-512c0-72.533 55.467-128 128-128h768c72.533 0 128 55.467 128 128v512c0 72.533-55.467 128-128 128zM128 746.667h768c25.6 0 42.667-17.067 42.667-42.667v-128h-853.333v128c0 25.6 17.067 42.667 42.667 42.667zM896 149.333h-768c-25.6 0-42.667 17.067-42.667 42.667v298.667h853.333v-298.667c0-25.6-17.067-42.667-42.667-42.667z" />
<glyph unicode="&#xe94f;" glyph-name="crop" d="M981.333 234.667h-170.667v384c0 34.133-12.8 68.267-38.4 89.6s-55.467 38.4-89.6 38.4l-379.733-4.267v174.933c0 25.6-17.067 42.667-42.667 42.667 0 0 0 0 0 0-21.333 0-42.667-17.067-42.667-42.667v-174.933h-174.933c-25.6 0-42.667-21.333-42.667-42.667s21.333-42.667 42.667-42.667c0 0 0 0 0 0h174.933l-4.267-379.733c0-34.133 12.8-68.267 38.4-89.6 21.333-25.6 55.467-38.4 89.6-38.4h384v-170.667c0-25.6 17.067-42.667 42.667-42.667s42.667 17.067 42.667 42.667v170.667h170.667c25.6 0 42.667 17.067 42.667 42.667s-17.067 42.667-42.667 42.667zM341.333 234.667c-12.8 0-21.333 4.267-29.867 12.8s-12.8 17.067-12.8 29.867l4.267 379.733 379.733 4.267c12.8 0 21.333-4.267 29.867-12.8s12.8-17.067 12.8-29.867v-384h-384z" />
<glyph unicode="&#xe950;" glyph-name="crosshair" d="M512 917.333c-260.267 0-469.333-209.067-469.333-469.333s209.067-469.333 469.333-469.333 469.333 209.067 469.333 469.333c0 260.267-209.067 469.333-469.333 469.333zM554.667 68.267v123.733c0 25.6-17.067 42.667-42.667 42.667s-42.667-17.067-42.667-42.667v-123.733c-179.2 21.333-320 162.133-337.067 337.067h123.733c25.6 0 42.667 17.067 42.667 42.667s-17.067 42.667-42.667 42.667h-123.733c17.067 179.2 157.867 320 337.067 337.067v-123.733c0-25.6 17.067-42.667 42.667-42.667s42.667 17.067 42.667 42.667v123.733c179.2-21.333 320-162.133 337.067-337.067h-123.733c-25.6 0-42.667-17.067-42.667-42.667s17.067-42.667 42.667-42.667h123.733c-17.067-179.2-157.867-320-337.067-337.067z" />
<glyph unicode="&#xe951;" glyph-name="database" d="M512 917.333c-204.8 0-426.667-55.467-426.667-170.667v-597.333c0-115.2 221.867-170.667 426.667-170.667s426.667 55.467 426.667 170.667v597.333c0 115.2-221.867 170.667-426.667 170.667zM853.333 448c0-21.333-106.667-85.333-341.333-85.333s-341.333 64-341.333 85.333v192c81.067-42.667 213.333-64 341.333-64s260.267 21.333 341.333 64v-192zM512 832c221.867 0 341.333-64 341.333-85.333s-119.467-85.333-341.333-85.333c-221.867 0-341.333 64-341.333 85.333s119.467 85.333 341.333 85.333zM512 64c-234.667 0-341.333 64-341.333 85.333v192c81.067-42.667 213.333-64 341.333-64s260.267 21.333 341.333 64v-192c0-21.333-106.667-85.333-341.333-85.333z" />
<glyph unicode="&#xe952;" glyph-name="delete" d="M985.6 793.6c-21.333 25.6-55.467 38.4-89.6 38.4h-554.667c-12.8 0-25.6-4.267-34.133-12.8l-298.667-341.333c-12.8-17.067-12.8-38.4 0-55.467l298.667-341.333c8.533-12.8 21.333-17.067 34.133-17.067h554.667c34.133 0 68.267 12.8 89.6 38.4s38.4 55.467 38.4 89.6v512c0 34.133-12.8 68.267-38.4 89.6zM938.667 192c0-12.8-4.267-21.333-12.8-29.867s-17.067-12.8-29.867-12.8h-533.333l-260.267 298.667 260.267 298.667h533.333c12.8 0 21.333-4.267 29.867-12.8s12.8-17.067 12.8-29.867v-512zM797.867 605.867c-17.067 17.067-42.667 17.067-59.733 0l-98.133-98.133-98.133 98.133c-17.067 17.067-42.667 17.067-59.733 0s-17.067-42.667 0-59.733l98.133-98.133-98.133-98.133c-17.067-17.067-17.067-42.667 0-59.733 8.533-8.533 21.333-12.8 29.867-12.8s21.333 4.267 29.867 12.8l98.133 98.133 98.133-98.133c8.533-8.533 21.333-12.8 29.867-12.8s21.333 4.267 29.867 12.8c17.067 17.067 17.067 42.667 0 59.733l-98.133 98.133 98.133 98.133c17.067 17.067 17.067 42.667 0 59.733z" />
<glyph unicode="&#xe953;" glyph-name="disc" d="M512 917.333c-260.267 0-469.333-209.067-469.333-469.333s209.067-469.333 469.333-469.333 469.333 209.067 469.333 469.333c0 260.267-209.067 469.333-469.333 469.333zM512 64c-213.333 0-384 170.667-384 384s170.667 384 384 384c213.333 0 384-170.667 384-384s-170.667-384-384-384zM512 618.667c-93.867 0-170.667-76.8-170.667-170.667s76.8-170.667 170.667-170.667c93.867 0 170.667 76.8 170.667 170.667s-76.8 170.667-170.667 170.667zM512 362.667c-46.933 0-85.333 38.4-85.333 85.333s38.4 85.333 85.333 85.333c46.933 0 85.333-38.4 85.333-85.333s-38.4-85.333-85.333-85.333z" />
<glyph unicode="&#xe954;" glyph-name="dollar-sign" d="M755.2 435.2c-34.133 38.4-85.333 55.467-136.533 55.467h-64v213.333h170.667c25.6 0 42.667 17.067 42.667 42.667s-17.067 42.667-42.667 42.667h-170.667v128c0 25.6-17.067 42.667-42.667 42.667s-42.667-17.067-42.667-42.667v-128h-64c-51.2 0-98.133-21.333-136.533-55.467-34.133-38.4-55.467-85.333-55.467-136.533s21.333-98.133 55.467-136.533c38.4-34.133 85.333-55.467 136.533-55.467h64v-213.333h-213.333c-25.6 0-42.667-17.067-42.667-42.667s17.067-42.667 42.667-42.667h213.333v-128c0-25.6 17.067-42.667 42.667-42.667s42.667 17.067 42.667 42.667v128h64c51.2 0 98.133 21.333 136.533 55.467 34.133 34.133 55.467 85.333 55.467 136.533s-21.333 98.133-55.467 136.533zM405.333 490.667c-29.867 0-55.467 12.8-76.8 29.867-17.067 21.333-29.867 46.933-29.867 76.8s12.8 55.467 29.867 76.8c21.333 17.067 46.933 29.867 76.8 29.867h64v-213.333h-64zM695.467 221.867c-21.333-21.333-46.933-29.867-76.8-29.867h-64v213.333h64c29.867 0 55.467-12.8 76.8-29.867 21.333-21.333 29.867-46.933 29.867-76.8s-12.8-55.467-29.867-76.8z" />
<glyph unicode="&#xe955;" glyph-name="download" d="M938.667 349.867c-25.6 0-42.667-17.067-42.667-42.667v-187.733c0-12.8-4.267-25.6-17.067-38.4-8.533-8.533-21.333-17.067-38.4-17.067h-661.333c-12.8 0-25.6 4.267-38.4 17.067-8.533 8.533-12.8 21.333-12.8 34.133v187.733c0 25.6-17.067 42.667-42.667 42.667s-42.667-17.067-42.667-42.667v-187.733c0-38.4 12.8-72.533 38.4-98.133s64-38.4 98.133-38.4h665.6c34.133 0 72.533 12.8 98.133 38.4s38.4 59.733 38.4 98.133v187.733c0 25.6-17.067 46.933-42.667 46.933zM482.133 277.333c4.267-4.267 8.533-8.533 12.8-8.533 4.267-4.267 12.8-4.267 17.067-4.267s12.8 0 17.067 4.267c4.267 4.267 8.533 4.267 12.8 8.533l238.933 238.933c17.067 17.067 17.067 42.667 0 59.733s-42.667 17.067-59.733 0l-166.4-166.4v465.067c0 25.6-17.067 42.667-42.667 42.667s-42.667-17.067-42.667-42.667v-465.067l-162.133 162.133c-17.067 17.067-42.667 17.067-59.733 0s-17.067-42.667 0-59.733l234.667-234.667z" />
<glyph unicode="&#xe956;" glyph-name="dropdown" d="M584.533 264.533c-38.4-51.2-102.4-51.2-145.067 0l-55.467 64c-38.4 51.2-102.4 132.267-145.067 179.2l-51.2 68.267c-42.667 51.2-21.333 89.6 42.667 89.6h162.133c64 0 166.4 0 230.4 0h162.133c64 0 85.333-42.667 42.667-89.6l-51.2-64c-38.4-51.2-102.4-132.267-145.067-179.2l-46.933-68.267z" />
<glyph unicode="&#xe957;" glyph-name="droplet" d="M887.467 443.733c-12.8 76.8-51.2 140.8-106.667 196.267l-243.2 243.2c-8.533 8.533-17.067 12.8-29.867 12.8v0c-12.8 0-21.333-4.267-29.867-12.8l-238.933-243.2c-55.467-55.467-89.6-123.733-106.667-196.267-12.8-76.8-8.533-153.6 21.333-221.867 29.867-72.533 76.8-128 140.8-170.667s136.533-64 213.333-64c76.8 0 149.333 21.333 213.333 64s110.933 102.4 140.8 170.667 42.667 149.333 25.6 221.867zM789.333 256c-21.333-55.467-59.733-102.4-110.933-132.267-98.133-64-234.667-64-332.8 0-51.2 34.133-85.333 81.067-110.933 132.267-21.333 55.467-29.867 115.2-17.067 170.667 12.8 59.733 38.4 110.933 81.067 153.6l213.333 209.067 213.333-213.333c42.667-42.667 68.267-93.867 81.067-153.6 8.533-55.467 4.267-115.2-17.067-166.4z" />
<glyph unicode="&#xe958;" glyph-name="edit-2" d="M85.333-21.333c-12.8 0-21.333 4.267-29.867 12.8-12.8 12.8-17.067 25.6-12.8 42.667l64 234.667c0 8.533 4.267 12.8 12.8 17.067l576 576c17.067 17.067 34.133 25.6 51.2 34.133 38.4 17.067 85.333 17.067 123.733 0 21.333-8.533 38.4-21.333 51.2-34.133 17.067-17.067 25.6-34.133 34.133-51.2 8.533-21.333 12.8-42.667 12.8-64s-4.267-42.667-12.8-64c-8.533-21.333-21.333-38.4-34.133-51.2l-571.733-576c-4.267-4.267-12.8-8.533-17.067-12.8l-234.667-64c-4.267 0-8.533 0-12.8 0zM187.733 234.667l-42.667-153.6 153.6 42.667 567.467 567.467c8.533 8.533 12.8 17.067 17.067 25.6s4.267 21.333 4.267 29.867 0 21.333-4.267 29.867-8.533 17.067-17.067 25.6c-8.533 8.533-17.067 12.8-25.6 17.067-17.067 8.533-42.667 8.533-59.733 0-8.533-4.267-17.067-8.533-25.6-17.067l-567.467-567.467z" />
<glyph unicode="&#xe959;" glyph-name="edit-3" d="M896 64h-384c-25.6 0-42.667 17.067-42.667 42.667s17.067 42.667 42.667 42.667h384c25.6 0 42.667-17.067 42.667-42.667s-17.067-42.667-42.667-42.667zM128 64c-12.8 0-21.333 4.267-29.867 12.8-12.8 8.533-17.067 25.6-12.8 38.4l42.667 170.667c0 8.533 4.267 12.8 12.8 21.333l533.333 533.333c38.4 38.4 98.133 46.933 145.067 29.867 17.067-8.533 29.867-17.067 42.667-29.867s21.333-25.6 29.867-42.667c4.267-17.067 8.533-34.133 8.533-51.2s-4.267-34.133-8.533-51.2c-8.533-17.067-17.067-29.867-29.867-42.667l-533.333-533.333c-4.267-4.267-12.8-8.533-21.333-12.8l-170.667-42.667c0 0-4.267 0-8.533 0zM209.067 256l-21.333-89.6 89.6 21.333 524.8 524.8c4.267 4.267 8.533 8.533 8.533 17.067 4.267 4.267 4.267 12.8 4.267 17.067s0 12.8-4.267 17.067-4.267 12.8-8.533 17.067-8.533 8.533-17.067 8.533c-17.067 8.533-38.4 4.267-51.2-8.533 0 0 0 0 0 0l-524.8-524.8zM704 810.667v0 0z" />
<glyph unicode="&#xe95a;" glyph-name="edit" d="M853.333 448c-25.6 0-42.667-17.067-42.667-42.667v-298.667c0-12.8-4.267-21.333-12.8-29.867s-17.067-12.8-29.867-12.8h-597.333c-12.8 0-21.333 4.267-29.867 12.8s-12.8 17.067-12.8 29.867v597.333c0 12.8 4.267 21.333 12.8 29.867s17.067 12.8 29.867 12.8h298.667c25.6 0 42.667 17.067 42.667 42.667s-17.067 42.667-42.667 42.667h-298.667c-34.133 0-68.267-12.8-89.6-38.4-25.6-21.333-38.4-55.467-38.4-89.6v-597.333c0-34.133 12.8-68.267 38.4-89.6 21.333-25.6 55.467-38.4 89.6-38.4h597.333c34.133 0 64 17.067 89.6 38.4s38.4 55.467 38.4 89.6v298.667c0 25.6-17.067 42.667-42.667 42.667zM947.2 883.2c-46.933 51.2-136.533 51.2-187.733 0l-405.333-405.333c-8.533-8.533-12.8-12.8-12.8-21.333l-42.667-170.667c-4.267-12.8 0-29.867 12.8-38.4 8.533-8.533 17.067-12.8 29.867-12.8 4.267 0 8.533 0 8.533 0l170.667 42.667c8.533 4.267 17.067 8.533 21.333 12.8l405.333 405.333c25.6 25.6 38.4 59.733 38.4 93.867s-12.8 68.267-38.4 93.867zM887.467 755.2l-396.8-396.8-89.6-21.333 21.333 89.6 396.8 396.8c17.067 17.067 51.2 17.067 68.267 0 8.533-8.533 12.8-21.333 12.8-34.133s-4.267-25.6-12.8-34.133z" />
<glyph unicode="&#xe95b;" glyph-name="external-link" d="M768 448c-25.6 0-42.667-17.067-42.667-42.667v-256c0-12.8-4.267-21.333-12.8-29.867s-17.067-12.8-29.867-12.8h-469.333c-12.8 0-21.333 4.267-29.867 12.8s-12.8 17.067-12.8 29.867v469.333c0 12.8 4.267 21.333 12.8 29.867s17.067 12.8 29.867 12.8h256c25.6 0 42.667 17.067 42.667 42.667s-17.067 42.667-42.667 42.667h-256c-34.133 0-68.267-12.8-89.6-38.4-25.6-21.333-38.4-55.467-38.4-89.6v-469.333c0-34.133 12.8-68.267 38.4-89.6 21.333-25.6 55.467-38.4 89.6-38.4h469.333c34.133 0 68.267 12.8 89.6 38.4s38.4 55.467 38.4 89.6v256c0 25.6-17.067 42.667-42.667 42.667zM934.4 849.067c-4.267 8.533-12.8 17.067-21.333 21.333-4.267 4.267-12.8 4.267-17.067 4.267h-256c-25.6 0-42.667-17.067-42.667-42.667s17.067-42.667 42.667-42.667h153.6l-396.8-396.8c-17.067-17.067-17.067-42.667 0-59.733 8.533-8.533 17.067-12.8 29.867-12.8s21.333 4.267 29.867 12.8l396.8 396.8v-153.6c0-25.6 17.067-42.667 42.667-42.667s42.667 17.067 42.667 42.667v256c0 4.267 0 12.8-4.267 17.067z" />
<glyph unicode="&#xe95c;" glyph-name="eye-off" d="M857.6 281.6c8.533-8.533 17.067-12.8 29.867-12.8 0 0 0 0 0 0 12.8 0 21.333 4.267 29.867 17.067 38.4 42.667 68.267 93.867 98.133 145.067 8.533 12.8 8.533 25.6 0 38.4-4.267 12.8-183.467 362.667-503.467 362.667-34.133 0-68.267-4.267-98.133-12.8-17.067 0-29.867-12.8-34.133-29.867s0-29.867 12.8-42.667l465.067-465.067zM934.4 448c-12.8-25.6-29.867-46.933-46.933-72.533l-371.2 371.2c226.133 0 375.467-230.4 418.133-298.667zM1011.2 8.533l-217.6 217.6c0 0 0 0 0 0l-503.467 503.467c0 0 0 0 0 0l-217.6 217.6c-17.067 17.067-42.667 17.067-59.733 0s-17.067-42.667 0-59.733l183.467-183.467c-76.8-68.267-140.8-145.067-192-234.667-8.533-12.8-8.533-25.6 0-38.4 8.533-17.067 187.733-366.933 507.733-366.933 89.6 0 174.933 25.6 247.467 76.8l192-192c8.533-8.533 21.333-12.8 29.867-12.8s21.333 4.267 29.867 12.8c17.067 17.067 17.067 42.667 0 59.733zM426.667 473.6l106.667-106.667c-8.533-4.267-17.067-4.267-25.6-4.267-12.8 0-21.333 0-34.133 4.267s-21.333 8.533-29.867 17.067c-8.533 8.533-12.8 17.067-17.067 29.867s-4.267 21.333-4.267 34.133c0 8.533 4.267 17.067 4.267 25.6zM512 149.333c-230.4 0-379.733 230.4-422.4 298.667 42.667 76.8 98.133 140.8 162.133 196.267l106.667-106.667c-4.267-8.533-8.533-12.8-12.8-21.333-8.533-21.333-12.8-42.667-12.8-68.267 0-21.333 4.267-46.933 12.8-68.267s21.333-38.4 38.4-55.467c17.067-17.067 34.133-29.867 55.467-38.4s42.667-12.8 68.267-12.8c21.333 0 46.933 4.267 68.267 12.8 8.533 4.267 12.8 8.533 21.333 12.8l98.133-98.133c-55.467-34.133-119.467-51.2-183.467-51.2z" />
<glyph unicode="&#xe95d;" glyph-name="eye" d="M1019.733 465.067c-8.533 17.067-187.733 366.933-507.733 366.933s-499.2-349.867-507.733-366.933c-4.267-12.8-4.267-25.6 0-38.4 8.533-12.8 187.733-362.667 507.733-362.667s499.2 349.867 507.733 366.933c4.267 8.533 4.267 25.6 0 34.133zM512 149.333c-230.4 0-379.733 230.4-422.4 298.667 38.4 68.267 192 298.667 422.4 298.667s379.733-230.4 422.4-298.667c-42.667-68.267-192-298.667-422.4-298.667zM512 618.667c-93.867 0-170.667-76.8-170.667-170.667s76.8-170.667 170.667-170.667c93.867 0 170.667 76.8 170.667 170.667s-76.8 170.667-170.667 170.667zM512 362.667c-46.933 0-85.333 38.4-85.333 85.333s38.4 85.333 85.333 85.333c46.933 0 85.333-38.4 85.333-85.333s-38.4-85.333-85.333-85.333z" />
<glyph unicode="&#xe95f;" glyph-name="fast-forward" d="M964.267 482.133l-384 298.667c-12.8 8.533-29.867 12.8-46.933 4.267-12.8-8.533-21.333-21.333-21.333-38.4v-597.333c0-17.067 8.533-29.867 25.6-38.4 4.267-4.267 12.8-4.267 17.067-4.267 8.533 0 17.067 4.267 25.6 8.533l384 298.667c8.533 8.533 17.067 21.333 17.067 34.133s-4.267 25.6-17.067 34.133zM597.333 234.667v426.667l273.067-213.333-273.067-213.333zM110.933 780.8c-12.8 8.533-29.867 12.8-42.667 4.267-17.067-8.533-25.6-21.333-25.6-38.4v-597.333c0-17.067 8.533-29.867 25.6-38.4 4.267-4.267 12.8-4.267 17.067-4.267 8.533 0 17.067 4.267 25.6 8.533l384 298.667c8.533 8.533 17.067 21.333 17.067 34.133s-4.267 25.6-17.067 34.133l-384 298.667zM128 234.667v426.667l273.067-213.333-273.067-213.333z" />
<glyph unicode="&#xe960;" glyph-name="file-minus" d="M891.733 635.733c-4.267 4.267-4.267 8.533-8.533 12.8l-256 256c-4.267 4.267-8.533 8.533-12.8 8.533-4.267 4.267-12.8 4.267-17.067 4.267h-341.333c-34.133 0-68.267-12.8-89.6-38.4-25.6-21.333-38.4-55.467-38.4-89.6v-682.667c0-34.133 12.8-68.267 38.4-89.6 21.333-25.6 55.467-38.4 89.6-38.4h512c34.133 0 68.267 12.8 89.6 38.4s38.4 55.467 38.4 89.6v512c0 4.267 0 12.8-4.267 17.067zM640 772.267l110.933-110.933h-110.933v110.933zM797.867 76.8c-8.533-8.533-17.067-12.8-29.867-12.8h-512c-12.8 0-21.333 4.267-29.867 12.8s-12.8 17.067-12.8 29.867v682.667c0 12.8 4.267 21.333 12.8 29.867s17.067 12.8 29.867 12.8h298.667v-213.333c0-25.6 17.067-42.667 42.667-42.667h213.333v-469.333c0-12.8-4.267-21.333-12.8-29.867zM640 362.667h-256c-25.6 0-42.667-17.067-42.667-42.667s17.067-42.667 42.667-42.667h256c25.6 0 42.667 17.067 42.667 42.667s-17.067 42.667-42.667 42.667z" />
<glyph unicode="&#xe961;" glyph-name="file-plus" d="M891.733 635.733c-4.267 4.267-4.267 8.533-8.533 12.8l-256 256c-4.267 4.267-8.533 8.533-12.8 8.533-4.267 4.267-12.8 4.267-17.067 4.267h-341.333c-34.133 0-68.267-12.8-89.6-38.4-25.6-21.333-38.4-55.467-38.4-89.6v-682.667c0-34.133 12.8-68.267 38.4-89.6 21.333-25.6 55.467-38.4 89.6-38.4h512c34.133 0 68.267 12.8 89.6 38.4s38.4 55.467 38.4 89.6v512c0 4.267 0 12.8-4.267 17.067zM640 772.267l110.933-110.933h-110.933v110.933zM797.867 76.8c-8.533-8.533-17.067-12.8-29.867-12.8h-512c-12.8 0-21.333 4.267-29.867 12.8s-12.8 17.067-12.8 29.867v682.667c0 12.8 4.267 21.333 12.8 29.867s17.067 12.8 29.867 12.8h298.667v-213.333c0-25.6 17.067-42.667 42.667-42.667h213.333v-469.333c0-12.8-4.267-21.333-12.8-29.867zM640 362.667h-85.333v85.333c0 25.6-17.067 42.667-42.667 42.667s-42.667-17.067-42.667-42.667v-85.333h-85.333c-25.6 0-42.667-17.067-42.667-42.667s17.067-42.667 42.667-42.667h85.333v-85.333c0-25.6 17.067-42.667 42.667-42.667s42.667 17.067 42.667 42.667v85.333h85.333c25.6 0 42.667 17.067 42.667 42.667s-17.067 42.667-42.667 42.667z" />
<glyph unicode="&#xe962;" glyph-name="file-text" d="M891.733 635.733c-4.267 4.267-4.267 8.533-8.533 12.8l-256 256c-4.267 4.267-8.533 8.533-12.8 8.533-4.267 4.267-12.8 4.267-17.067 4.267h-341.333c-34.133 0-68.267-12.8-89.6-38.4-25.6-21.333-38.4-55.467-38.4-89.6v-682.667c0-34.133 12.8-68.267 38.4-89.6 21.333-25.6 55.467-38.4 89.6-38.4h512c34.133 0 68.267 12.8 89.6 38.4s38.4 55.467 38.4 89.6v512c0 4.267 0 12.8-4.267 17.067zM640 772.267l110.933-110.933h-110.933v110.933zM797.867 76.8c-8.533-8.533-17.067-12.8-29.867-12.8h-512c-12.8 0-21.333 4.267-29.867 12.8s-12.8 17.067-12.8 29.867v682.667c0 12.8 4.267 21.333 12.8 29.867s17.067 12.8 29.867 12.8h298.667v-213.333c0-25.6 17.067-42.667 42.667-42.667h213.333v-469.333c0-12.8-4.267-21.333-12.8-29.867zM682.667 448h-341.333c-25.6 0-42.667-17.067-42.667-42.667s17.067-42.667 42.667-42.667h341.333c25.6 0 42.667 17.067 42.667 42.667s-17.067 42.667-42.667 42.667zM682.667 277.333h-341.333c-25.6 0-42.667-17.067-42.667-42.667s17.067-42.667 42.667-42.667h341.333c25.6 0 42.667 17.067 42.667 42.667s-17.067 42.667-42.667 42.667zM341.333 533.333h85.333c25.6 0 42.667 17.067 42.667 42.667s-17.067 42.667-42.667 42.667h-85.333c-25.6 0-42.667-17.067-42.667-42.667s17.067-42.667 42.667-42.667z" />
<glyph unicode="&#xe963;" glyph-name="file" d="M891.733 593.067c-4.267 4.267-4.267 8.533-8.533 12.8l-298.667 298.667c-4.267 4.267-8.533 8.533-12.8 8.533-4.267 4.267-12.8 4.267-17.067 4.267h-298.667c-34.133 0-68.267-12.8-89.6-38.4-25.6-21.333-38.4-55.467-38.4-89.6v-682.667c0-34.133 12.8-68.267 38.4-89.6 21.333-25.6 55.467-38.4 89.6-38.4h512c34.133 0 68.267 12.8 89.6 38.4s38.4 55.467 38.4 89.6v469.333c0 4.267 0 12.8-4.267 17.067zM597.333 772.267l153.6-153.6h-153.6v153.6zM797.867 76.8c-8.533-8.533-17.067-12.8-29.867-12.8h-512c-12.8 0-21.333 4.267-29.867 12.8s-12.8 17.067-12.8 29.867v682.667c0 12.8 4.267 21.333 12.8 29.867s17.067 12.8 29.867 12.8h256v-256c0-25.6 17.067-42.667 42.667-42.667h256v-426.667c0-12.8-4.267-21.333-12.8-29.867z" />
<glyph unicode="&#xe964;" glyph-name="film" d="M844.8 917.333h-665.6c-76.8 0-136.533-59.733-136.533-136.533v-665.6c0-76.8 59.733-136.533 136.533-136.533h665.6c76.8 0 136.533 59.733 136.533 136.533v665.6c0 76.8-59.733 136.533-136.533 136.533zM768 618.667h128v-128h-128v128zM682.667 490.667h-341.333v341.333h341.333v-341.333zM256 490.667h-128v128h128v-128zM128 405.333h128v-128h-128v128zM341.333 405.333h341.333v-341.333h-341.333v341.333zM768 405.333h128v-128h-128v128zM896 780.8v-76.8h-128v128h76.8c29.867 0 51.2-21.333 51.2-51.2zM179.2 832h76.8v-128h-128v76.8c0 29.867 21.333 51.2 51.2 51.2zM128 115.2v76.8h128v-128h-76.8c-29.867 0-51.2 21.333-51.2 51.2zM844.8 64h-76.8v128h128v-76.8c0-29.867-21.333-51.2-51.2-51.2z" />
<glyph unicode="&#xe965;" glyph-name="filter" d="M977.067 849.067c-8.533 17.067-21.333 25.6-38.4 25.6h-853.333c-17.067 0-29.867-8.533-38.4-25.6-8.533-12.8-4.267-29.867 4.267-42.667l332.8-392.533v-264.533c0-17.067 8.533-29.867 25.6-38.4l170.667-85.333c4.267-4.267 8.533-4.267 17.067-4.267s17.067 0 21.333 4.267c12.8 8.533 21.333 21.333 21.333 38.4v349.867l332.8 392.533c8.533 12.8 12.8 29.867 4.267 42.667zM563.2 456.533c-4.267-8.533-8.533-17.067-8.533-29.867v-294.4l-85.333 42.667v251.733c0 8.533-4.267 21.333-8.533 25.6l-281.6 337.067h669.867l-285.867-332.8z" />
<glyph unicode="&#xe966;" glyph-name="flag" d="M870.4 870.4c-17.067 8.533-34.133 4.267-46.933-8.533 0 0-38.4-29.867-140.8-29.867-55.467 0-102.4 21.333-153.6 38.4-55.467 25.6-115.2 46.933-187.733 46.933-136.533 0-192-46.933-200.533-55.467s-12.8-17.067-12.8-29.867v-810.667c0-25.6 17.067-42.667 42.667-42.667s42.667 17.067 42.667 42.667v277.333c17.067 8.533 59.733 21.333 128 21.333 55.467 0 102.4-21.333 153.6-38.4 55.467-21.333 115.2-46.933 187.733-46.933 136.533 0 192 46.933 200.533 55.467s12.8 17.067 12.8 29.867v512c0 17.067-8.533 29.867-25.6 38.4zM810.667 341.333c-17.067-8.533-59.733-21.333-128-21.333-55.467 0-102.4 21.333-153.6 38.4-55.467 25.6-115.2 46.933-187.733 46.933-55.467 0-98.133-8.533-128-17.067v422.4c17.067 8.533 59.733 21.333 128 21.333 55.467 0 102.4-21.333 153.6-38.4 55.467-25.6 115.2-46.933 187.733-46.933 55.467 0 98.133 8.533 128 17.067v-422.4z" />
<glyph unicode="&#xe967;" glyph-name="folder-minus" d="M942.933 708.267c-21.333 25.6-55.467 38.4-89.6 38.4h-362.667l-72.533 110.933c-8.533 8.533-21.333 17.067-34.133 17.067h-213.333c-34.133 0-68.267-12.8-89.6-38.4-25.6-21.333-38.4-55.467-38.4-89.6v-597.333c0-34.133 12.8-68.267 38.4-89.6 21.333-25.6 55.467-38.4 89.6-38.4h682.667c34.133 0 68.267 12.8 89.6 38.4s38.4 55.467 38.4 89.6v469.333c0 34.133-12.8 68.267-38.4 89.6zM896 149.333c0-12.8-4.267-21.333-12.8-29.867s-17.067-12.8-29.867-12.8h-682.667c-12.8 0-21.333 4.267-29.867 12.8s-12.8 17.067-12.8 29.867v597.333c0 12.8 4.267 21.333 12.8 29.867s17.067 12.8 29.867 12.8h192l72.533-110.933c8.533-8.533 21.333-17.067 34.133-17.067h384c12.8 0 21.333-4.267 29.867-12.8s12.8-17.067 12.8-29.867v-469.333zM640 405.333h-256c-25.6 0-42.667-17.067-42.667-42.667s17.067-42.667 42.667-42.667h256c25.6 0 42.667 17.067 42.667 42.667s-17.067 42.667-42.667 42.667z" />
<glyph unicode="&#xe968;" glyph-name="folder-plus" d="M942.933 708.267c-21.333 25.6-55.467 38.4-89.6 38.4h-362.667l-72.533 110.933c-8.533 8.533-21.333 17.067-34.133 17.067h-213.333c-34.133 0-68.267-12.8-89.6-38.4-25.6-21.333-38.4-55.467-38.4-89.6v-597.333c0-34.133 12.8-68.267 38.4-89.6 21.333-25.6 55.467-38.4 89.6-38.4h682.667c34.133 0 68.267 12.8 89.6 38.4s38.4 55.467 38.4 89.6v469.333c0 34.133-12.8 68.267-38.4 89.6zM896 149.333c0-12.8-4.267-21.333-12.8-29.867s-17.067-12.8-29.867-12.8h-682.667c-12.8 0-21.333 4.267-29.867 12.8s-12.8 17.067-12.8 29.867v597.333c0 12.8 4.267 21.333 12.8 29.867s17.067 12.8 29.867 12.8h192l72.533-110.933c8.533-8.533 21.333-17.067 34.133-17.067h384c12.8 0 21.333-4.267 29.867-12.8s12.8-17.067 12.8-29.867v-469.333zM640 405.333h-85.333v85.333c0 25.6-17.067 42.667-42.667 42.667s-42.667-17.067-42.667-42.667v-85.333h-85.333c-25.6 0-42.667-17.067-42.667-42.667s17.067-42.667 42.667-42.667h85.333v-85.333c0-25.6 17.067-42.667 42.667-42.667s42.667 17.067 42.667 42.667v85.333h85.333c25.6 0 42.667 17.067 42.667 42.667s-17.067 42.667-42.667 42.667z" />
<glyph unicode="&#xe969;" glyph-name="folder" d="M853.333 21.333h-682.667c-34.133 0-68.267 12.8-89.6 38.4-25.6 21.333-38.4 55.467-38.4 89.6v597.333c0 34.133 12.8 68.267 38.4 89.6 21.333 25.6 55.467 38.4 89.6 38.4h213.333c12.8 0 25.6-8.533 34.133-17.067l72.533-110.933h362.667c34.133 0 68.267-12.8 89.6-38.4s38.4-55.467 38.4-89.6v-469.333c0-34.133-12.8-68.267-38.4-89.6s-55.467-38.4-89.6-38.4zM170.667 789.333c-12.8 0-21.333-4.267-29.867-12.8s-12.8-17.067-12.8-29.867v-597.333c0-12.8 4.267-21.333 12.8-29.867s17.067-12.8 29.867-12.8h682.667c12.8 0 21.333 4.267 29.867 12.8s12.8 17.067 12.8 29.867v469.333c0 12.8-4.267 21.333-12.8 29.867s-17.067 12.8-29.867 12.8h-384c-12.8 0-25.6 8.533-34.133 17.067l-72.533 110.933h-192z" />
<glyph unicode="&#xe96a;" glyph-name="frown" d="M512 917.333c-260.267 0-469.333-209.067-469.333-469.333s209.067-469.333 469.333-469.333 469.333 209.067 469.333 469.333c0 260.267-209.067 469.333-469.333 469.333zM512 64c-213.333 0-384 170.667-384 384s170.667 384 384 384c213.333 0 384-170.667 384-384s-170.667-384-384-384zM512 405.333c-128 0-200.533-98.133-204.8-102.4-12.8-17.067-8.533-46.933 8.533-59.733s46.933-8.533 59.733 8.533c0 0 55.467 68.267 136.533 68.267s136.533-68.267 136.533-68.267c8.533-12.8 21.333-17.067 34.133-17.067 8.533 0 17.067 4.267 25.6 8.533 17.067 12.8 21.333 42.667 8.533 59.733-4.267 4.267-76.8 102.4-204.8 102.4zM384 533.333c25.6 0 42.667 17.067 42.667 42.667s-17.067 42.667-42.667 42.667v0c-25.6 0-42.667-17.067-42.667-42.667s21.333-42.667 42.667-42.667zM640 533.333c25.6 0 42.667 17.067 42.667 42.667s-17.067 42.667-42.667 42.667v0c-25.6 0-42.667-17.067-42.667-42.667s21.333-42.667 42.667-42.667z" />
<glyph unicode="&#xe96b;" glyph-name="game" d="M341.333 456.533h-42.667v42.667c0 25.6-17.067 42.667-42.667 42.667s-42.667-17.067-42.667-42.667v-42.667h-42.667c-25.6 0-42.667-17.067-42.667-42.667s17.067-42.667 42.667-42.667h42.667v-42.667c0-25.6 17.067-42.667 42.667-42.667s42.667 17.067 42.667 42.667v42.667h42.667c25.6 0 42.667 17.067 42.667 42.667 0 21.333-17.067 42.667-42.667 42.667zM891.733 503.467c-17.067 17.067-42.667 17.067-59.733 0l-29.867-29.867-29.867 29.867c-17.067 17.067-42.667 17.067-59.733 0s-17.067-42.667 0-59.733l29.867-29.867-29.867-29.867c-17.067-17.067-17.067-42.667 0-59.733 8.533-8.533 21.333-12.8 29.867-12.8s21.333 4.267 29.867 12.8l29.867 29.867 29.867-29.867c8.533-8.533 21.333-12.8 29.867-12.8s21.333 4.267 29.867 12.8c17.067 17.067 17.067 42.667 0 59.733l-29.867 29.867 29.867 29.867c17.067 17.067 17.067 42.667 0 59.733zM896 682.667h-341.333v149.333c0 25.6-17.067 42.667-42.667 42.667s-42.667-17.067-42.667-42.667v-149.333h-341.333c-72.533 0-128-55.467-128-128v-371.2c0-29.867 12.8-76.8 42.667-119.467 34.133-42.667 81.067-64 140.8-64s110.933 21.333 140.8 64c25.6 34.133 38.4 76.8 38.4 115.2h294.4c0-102.4 81.067-183.467 183.467-183.467s183.467 81.067 183.467 183.467v375.467c0 72.533-55.467 128-128 128zM938.667 183.467c0-51.2-42.667-98.133-98.133-98.133s-98.133 42.667-98.133 98.133c0 21.333-8.533 42.667-25.6 59.733s-38.4 25.6-59.733 25.6h-294.4c-46.933 0-85.333-38.4-85.333-85.333 0-17.067-4.267-42.667-21.333-64s-42.667-34.133-72.533-34.133c-29.867 0-55.467 12.8-72.533 34.133s-25.6 46.933-25.6 64v371.2c0 25.6 17.067 42.667 42.667 42.667h768c25.6 0 42.667-17.067 42.667-42.667v-371.2z" />
<glyph unicode="&#xe96c;" glyph-name="gift" d="M938.667 704h-102.4c12.8 21.333 17.067 42.667 17.067 64 0 38.4-17.067 76.8-42.667 106.667s-64 42.667-106.667 42.667c-98.133 0-157.867-68.267-192-132.267-34.133 64-93.867 132.267-192 132.267-38.4 0-76.8-17.067-106.667-42.667-25.6-29.867-42.667-68.267-42.667-106.667 0-21.333 4.267-42.667 17.067-64h-102.4c-25.6 0-42.667-17.067-42.667-42.667v-213.333c0-25.6 17.067-42.667 42.667-42.667h42.667v-384c0-25.6 17.067-42.667 42.667-42.667h682.667c25.6 0 42.667 17.067 42.667 42.667v384h42.667c25.6 0 42.667 17.067 42.667 42.667v213.333c0 25.6-17.067 42.667-42.667 42.667zM704 832c17.067 0 34.133-8.533 46.933-17.067 8.533-12.8 17.067-29.867 17.067-46.933s-8.533-34.133-17.067-46.933c-12.8-8.533-29.867-17.067-46.933-17.067h-136.533c21.333 51.2 64 128 136.533 128zM273.067 721.067c-8.533 12.8-17.067 29.867-17.067 46.933s8.533 34.133 17.067 46.933 29.867 17.067 46.933 17.067c72.533 0 115.2-76.8 136.533-128h-136.533c-17.067 0-34.133 8.533-46.933 17.067zM128 618.667h341.333v-128h-341.333v128zM213.333 405.333h256v-341.333h-256v341.333zM810.667 64h-256v341.333h256v-341.333zM896 490.667h-341.333v128h341.333v-128z" />
<glyph unicode="&#xe96d;" glyph-name="globe" d="M512 917.333c-260.267 0-469.333-209.067-469.333-469.333s209.067-469.333 469.333-469.333 469.333 209.067 469.333 469.333c0 260.267-209.067 469.333-469.333 469.333zM891.733 490.667h-170.667c-8.533 119.467-46.933 230.4-115.2 328.533 153.6-38.4 268.8-170.667 285.867-328.533zM388.267 405.333h251.733c-12.8-115.2-55.467-226.133-123.733-320-76.8 93.867-119.467 204.8-128 320zM388.267 490.667c12.8 115.2 55.467 226.133 123.733 315.733 72.533-93.867 115.2-204.8 123.733-315.733h-247.467zM413.867 819.2c-64-98.133-102.4-209.067-110.933-328.533h-170.667c17.067 157.867 132.267 290.133 281.6 328.533zM132.267 405.333h170.667c8.533-119.467 46.933-230.4 115.2-328.533-153.6 38.4-268.8 170.667-285.867 328.533zM610.133 76.8c64 98.133 102.4 209.067 115.2 328.533h170.667c-21.333-157.867-136.533-290.133-285.867-328.533z" />
<glyph unicode="&#xe96e;" glyph-name="gps" d="M512 584.533c-76.8 0-136.533-59.733-136.533-136.533s59.733-136.533 136.533-136.533 136.533 59.733 136.533 136.533-59.733 136.533-136.533 136.533zM512 388.267c-34.133 0-59.733 25.6-59.733 59.733s25.6 59.733 59.733 59.733 59.733-25.6 59.733-59.733-25.6-59.733-59.733-59.733zM942.933 486.4h-81.067c-17.067 162.133-149.333 294.4-311.467 311.467v81.067c0 21.333-17.067 38.4-38.4 38.4s-38.4-17.067-38.4-38.4v-81.067c-162.133-17.067-294.4-149.333-311.467-311.467h-81.067c-21.333 0-38.4-17.067-38.4-38.4s17.067-38.4 38.4-38.4h81.067c17.067-162.133 149.333-294.4 311.467-311.467v-81.067c0-21.333 17.067-38.4 38.4-38.4s38.4 17.067 38.4 38.4v81.067c162.133 17.067 294.4 149.333 311.467 311.467h81.067c21.333 0 38.4 17.067 38.4 38.4s-17.067 38.4-38.4 38.4zM512 174.933c-149.333 0-273.067 123.733-273.067 273.067s123.733 273.067 273.067 273.067 273.067-123.733 273.067-273.067-123.733-273.067-273.067-273.067z" />
<glyph unicode="&#xe96f;" glyph-name="grid" d="M426.667 874.667h-298.667c-25.6 0-42.667-17.067-42.667-42.667v-298.667c0-25.6 17.067-42.667 42.667-42.667h298.667c25.6 0 42.667 17.067 42.667 42.667v298.667c0 25.6-17.067 42.667-42.667 42.667zM384 576h-213.333v213.333h213.333v-213.333zM896 874.667h-298.667c-25.6 0-42.667-17.067-42.667-42.667v-298.667c0-25.6 17.067-42.667 42.667-42.667h298.667c25.6 0 42.667 17.067 42.667 42.667v298.667c0 25.6-17.067 42.667-42.667 42.667zM853.333 576h-213.333v213.333h213.333v-213.333zM896 405.333h-298.667c-25.6 0-42.667-17.067-42.667-42.667v-298.667c0-25.6 17.067-42.667 42.667-42.667h298.667c25.6 0 42.667 17.067 42.667 42.667v298.667c0 25.6-17.067 42.667-42.667 42.667zM853.333 106.667h-213.333v213.333h213.333v-213.333zM426.667 405.333h-298.667c-25.6 0-42.667-17.067-42.667-42.667v-298.667c0-25.6 17.067-42.667 42.667-42.667h298.667c25.6 0 42.667 17.067 42.667 42.667v298.667c0 25.6-17.067 42.667-42.667 42.667zM384 106.667h-213.333v213.333h213.333v-213.333z" />
<glyph unicode="&#xe970;" glyph-name="hard-drive" d="M977.067 465.067c0 0 0 0 0 0l-149.333 294.4c-8.533 21.333-25.6 38.4-46.933 51.2s-42.667 17.067-68.267 17.067h-405.333c-21.333 4.267-46.933-4.267-64-17.067-21.333-8.533-38.4-29.867-46.933-51.2l-145.067-294.4c0 0 0 0 0 0-8.533-4.267-8.533-8.533-8.533-17.067v-256c0-34.133 12.8-68.267 38.4-89.6 21.333-25.6 55.467-38.4 89.6-38.4h682.667c34.133 0 68.267 12.8 89.6 38.4s38.4 55.467 38.4 89.6v256c0 8.533 0 12.8-4.267 17.067zM268.8 721.067c0 0 0 0 0 0 4.267 8.533 8.533 12.8 17.067 17.067s17.067 8.533 21.333 8.533h405.333c8.533 0 17.067-4.267 21.333-4.267 8.533-4.267 12.8-8.533 17.067-17.067l115.2-230.4h-712.533l115.2 226.133zM883.2 162.133c-8.533-8.533-17.067-12.8-29.867-12.8h-682.667c-12.8 0-21.333 4.267-29.867 12.8s-12.8 17.067-12.8 29.867v213.333h768v-213.333c0-12.8-4.267-21.333-12.8-29.867zM256 320v0c-25.6 0-42.667-17.067-42.667-42.667s21.333-42.667 42.667-42.667 42.667 17.067 42.667 42.667-17.067 42.667-42.667 42.667zM426.667 320v0c-25.6 0-42.667-17.067-42.667-42.667s21.333-42.667 42.667-42.667 42.667 17.067 42.667 42.667-17.067 42.667-42.667 42.667z" />
<glyph unicode="&#xe971;" glyph-name="hash" d="M853.333 362.667h-179.2l17.067 170.667h162.133c25.6 0 42.667 17.067 42.667 42.667s-17.067 42.667-42.667 42.667h-149.333l21.333 209.067c4.267 21.333-12.8 42.667-38.4 46.933-21.333 4.267-42.667-12.8-46.933-38.4l-25.6-217.6h-170.667l25.6 209.067c4.267 21.333-12.8 42.667-38.4 46.933-21.333 4.267-42.667-12.8-46.933-38.4l-25.6-217.6h-187.733c-25.6 0-42.667-17.067-42.667-42.667s17.067-42.667 42.667-42.667h179.2l-17.067-170.667h-162.133c-25.6 0-42.667-17.067-42.667-42.667s17.067-42.667 42.667-42.667h149.333l-21.333-209.067c-4.267-21.333 12.8-42.667 38.4-46.933 0 0 4.267 0 4.267 0 21.333 0 38.4 17.067 42.667 38.4l25.6 217.6h170.667l-25.6-209.067c-4.267-21.333 12.8-42.667 38.4-46.933 0 0 4.267 0 4.267 0 21.333 0 38.4 17.067 42.667 38.4l25.6 217.6h187.733c25.6 0 42.667 17.067 42.667 42.667s-17.067 42.667-42.667 42.667zM418.133 362.667l17.067 170.667h170.667l-17.067-170.667h-170.667z" />
<glyph unicode="&#xe972;" glyph-name="headphones" d="M814.933 750.933c-81.067 81.067-187.733 123.733-302.933 123.733s-221.867-42.667-302.933-123.733c-81.067-81.067-123.733-187.733-123.733-302.933v-298.667c0-34.133 12.8-68.267 38.4-89.6 21.333-25.6 55.467-38.4 89.6-38.4h42.667c34.133 0 68.267 12.8 89.6 38.4 25.6 21.333 38.4 55.467 38.4 89.6v128c0 34.133-12.8 68.267-38.4 89.6-21.333 25.6-55.467 38.4-89.6 38.4h-85.333v42.667c0 89.6 34.133 174.933 98.133 243.2 68.267 64 153.6 98.133 243.2 98.133s174.933-34.133 243.2-98.133c64-68.267 98.133-153.6 98.133-243.2v-42.667h-85.333c-34.133 0-68.267-12.8-89.6-38.4-25.6-21.333-38.4-55.467-38.4-89.6v-128c0-34.133 12.8-68.267 38.4-89.6s55.467-38.4 89.6-38.4h42.667c34.133 0 68.267 12.8 89.6 38.4s38.4 55.467 38.4 89.6v298.667c0 115.2-42.667 221.867-123.733 302.933zM256 320c12.8 0 21.333-4.267 29.867-12.8s12.8-17.067 12.8-29.867v-128c0-12.8-4.267-21.333-12.8-29.867s-17.067-12.8-29.867-12.8h-42.667c-12.8 0-21.333 4.267-29.867 12.8s-12.8 17.067-12.8 29.867v170.667h85.333zM853.333 149.333c0-12.8-4.267-21.333-12.8-29.867s-17.067-12.8-29.867-12.8h-42.667c-12.8 0-21.333 4.267-29.867 12.8s-12.8 17.067-12.8 29.867v128c0 12.8 4.267 21.333 12.8 29.867s17.067 12.8 29.867 12.8h85.333v-170.667z" />
<glyph unicode="&#xe973;" glyph-name="heart" d="M512 12.8c-12.8 0-21.333 4.267-29.867 12.8l-375.467 375.467c-51.2 51.2-81.067 123.733-81.067 196.267s29.867 145.067 81.067 196.267 119.467 81.067 192 81.067c72.533 0 145.067-29.867 196.267-81.067l17.067-17.067 17.067 17.067c25.6 25.6 55.467 46.933 89.6 59.733 68.267 29.867 145.067 29.867 213.333 0 34.133-12.8 64-34.133 89.6-59.733s42.667-55.467 59.733-89.6c12.8-34.133 21.333-68.267 21.333-106.667s-8.533-72.533-21.333-106.667c-12.8-34.133-34.133-64-59.733-89.6l-375.467-375.467c-12.8-8.533-21.333-12.8-34.133-12.8zM298.667 789.333c-51.2 0-98.133-21.333-132.267-55.467s-55.467-85.333-55.467-136.533c0-51.2 21.333-98.133 55.467-136.533l345.6-345.6 345.6 345.6c17.067 17.067 29.867 38.4 42.667 64 8.533 21.333 12.8 46.933 12.8 72.533s-4.267 51.2-12.8 72.533c-8.533 21.333-25.6 42.667-42.667 64 0 0 0 0 0 0-17.067 17.067-38.4 29.867-64 42.667-46.933 21.333-102.4 21.333-145.067 0-25.6-8.533-42.667-25.6-64-42.667l-46.933-46.933c-17.067-17.067-42.667-17.067-59.733 0l-46.933 46.933c-29.867 34.133-76.8 55.467-132.267 55.467z" />
<glyph unicode="&#xe974;" glyph-name="help-circle" d="M512 917.333c-260.267 0-469.333-209.067-469.333-469.333s209.067-469.333 469.333-469.333 469.333 209.067 469.333 469.333c0 260.267-209.067 469.333-469.333 469.333zM512 64c-213.333 0-384 170.667-384 384s170.667 384 384 384c213.333 0 384-170.667 384-384s-170.667-384-384-384zM537.6 699.733c-38.4 8.533-81.067 0-115.2-21.333-34.133-17.067-59.733-51.2-76.8-89.6-4.267-21.333 4.267-46.933 29.867-51.2 21.333-8.533 46.933 4.267 55.467 25.6 8.533 17.067 21.333 34.133 38.4 46.933 12.8 8.533 34.133 12.8 55.467 8.533s38.4-12.8 51.2-29.867c12.8-17.067 21.333-34.133 21.333-55.467 0-42.667-72.533-76.8-98.133-89.6-21.333-8.533-34.133-29.867-25.6-55.467 4.267-17.067 21.333-29.867 38.4-29.867 4.267 0 8.533 0 12.8 4.267 17.067 4.267 157.867 55.467 157.867 166.4 0 38.4-12.8 81.067-38.4 110.933-29.867 34.133-68.267 55.467-106.667 59.733zM512 277.333v0c-25.6 0-42.667-17.067-42.667-42.667s21.333-42.667 42.667-42.667 42.667 17.067 42.667 42.667-17.067 42.667-42.667 42.667z" />
</font>
</defs>
</svg>
